<svg width="199" height="166" viewBox="0 0 199 166" fill="none" xmlns="http://www.w3.org/2000/svg">
<g id="Frame 6">
<path id="bigFolderBack" d="M44.9999 29C38.9999 29 30 29 30 42.9999V124.5H152.5V71.9999C152.5 51.9999 142.5 47.3333 137.5 47.4999H67.5V40.5C67.5 37.0459 63.5 29 58 29H45H44.9999Z" fill="#FBC379" stroke="black" stroke-width="2"/>
<g id="bigFrontGroup">
<path id="bigFolderFront" d="M45 70.0001C43.5 75.0001 33.6255 110 30.5 122.5C29.2497 127.5 31 136.5 40 137C49.0001 137.5 137 137.8 141 137C145 136.2 151.111 132 152.5 127C157.5 109 167.4 75.0001 167 69.0002C166.6 63.0002 160 59.5219 156 59.5002C125.333 59.3335 64 59.1002 58 59.5002C52 59.9002 46.5 65.0001 45 70.0001Z" fill="#FED9A2" stroke="black" stroke-width="2"/>
<path id="PROJECT" d="M58.8398 108L61.8574 93.7227H65.0703C66.0794 93.7227 66.8965 93.8757 67.5215 94.1816C68.1465 94.4876 68.6022 94.9173 68.8887 95.4707C69.1751 96.0241 69.3184 96.6751 69.3184 97.4238C69.3184 98.2116 69.1849 98.9115 68.918 99.5234C68.6576 100.135 68.2669 100.653 67.7461 101.076C67.2253 101.499 66.5775 101.822 65.8027 102.043C65.0345 102.258 64.1426 102.365 63.127 102.365H61.6719L60.4805 108H58.8398ZM61.9746 100.969H63.3809C64.2663 100.969 65.0247 100.842 65.6562 100.588C66.2943 100.334 66.7826 99.9499 67.1211 99.4355C67.4661 98.9147 67.6387 98.2604 67.6387 97.4727C67.6387 96.6523 67.4076 96.0599 66.9453 95.6953C66.4831 95.3242 65.7799 95.1387 64.8359 95.1387H63.2148L61.9746 100.969ZM70.168 108L73.1855 93.7227H76.3105C77.7689 93.7227 78.8626 94.0254 79.5918 94.6309C80.321 95.2298 80.6855 96.1185 80.6855 97.2969C80.6855 98 80.5651 98.6413 80.3242 99.2207C80.0833 99.7936 79.696 100.288 79.1621 100.705C78.6348 101.122 77.9414 101.447 77.082 101.682L79.4258 108H77.6289L75.5586 102.043H73.0684L71.8086 108H70.168ZM73.3613 100.637H75.0898C75.7474 100.637 76.3203 100.562 76.8086 100.412C77.2969 100.256 77.7005 100.038 78.0195 99.7578C78.3451 99.4779 78.5859 99.1393 78.7422 98.7422C78.9049 98.3451 78.9863 97.9023 78.9863 97.4141C78.9863 96.5872 78.7487 96.0046 78.2734 95.666C77.8047 95.3275 77.0951 95.1582 76.1445 95.1582H74.543L73.3613 100.637ZM87.502 108.195C86.3561 108.195 85.3893 107.967 84.6016 107.512C83.8203 107.056 83.2311 106.411 82.834 105.578C82.4368 104.745 82.2383 103.765 82.2383 102.639C82.2383 101.825 82.3099 101.037 82.4531 100.275C82.6029 99.5137 82.8177 98.7943 83.0977 98.1172C83.3776 97.4336 83.7227 96.8118 84.1328 96.252C84.5495 95.6855 85.0247 95.1973 85.5586 94.7871C86.0924 94.377 86.6816 94.0612 87.3262 93.8398C87.9772 93.612 88.6803 93.498 89.4355 93.498C91.0371 93.498 92.2871 93.9961 93.1855 94.9922C94.0905 95.9818 94.543 97.3587 94.543 99.123C94.543 99.9108 94.4779 100.682 94.3477 101.438C94.2174 102.186 94.0221 102.899 93.7617 103.576C93.5013 104.253 93.1758 104.875 92.7852 105.441C92.3945 106.001 91.9388 106.486 91.418 106.896C90.8971 107.307 90.3112 107.626 89.6602 107.854C89.0091 108.081 88.2897 108.195 87.502 108.195ZM87.5605 106.74C88.1204 106.74 88.638 106.643 89.1133 106.447C89.5885 106.252 90.0182 105.979 90.4023 105.627C90.793 105.275 91.1348 104.862 91.4277 104.387C91.7272 103.911 91.9779 103.391 92.1797 102.824C92.3815 102.251 92.5345 101.649 92.6387 101.018C92.7428 100.386 92.7949 99.7415 92.7949 99.084C92.7949 97.7819 92.4857 96.7695 91.8672 96.0469C91.2552 95.3242 90.4056 94.9629 89.3184 94.9629C88.7585 94.9629 88.2376 95.0573 87.7559 95.2461C87.2741 95.4284 86.8346 95.6921 86.4375 96.0371C86.0404 96.3757 85.6888 96.7793 85.3828 97.248C85.0833 97.7168 84.8294 98.2376 84.6211 98.8105C84.4128 99.377 84.2533 99.9792 84.1426 100.617C84.0384 101.255 83.9863 101.916 83.9863 102.6C83.9863 103.459 84.1263 104.198 84.4062 104.816C84.6862 105.435 85.0931 105.91 85.627 106.242C86.1608 106.574 86.8053 106.74 87.5605 106.74ZM93.5664 111.76C93.2539 111.76 92.9609 111.737 92.6875 111.691C92.4076 111.646 92.1927 111.59 92.043 111.525L92.0918 110.1C92.3001 110.158 92.528 110.204 92.7754 110.236C93.0163 110.275 93.2702 110.295 93.5371 110.295C93.9538 110.295 94.3314 110.21 94.6699 110.041C95.002 109.872 95.2884 109.608 95.5293 109.25C95.7702 108.892 95.9492 108.43 96.0664 107.863L99.0742 93.7227H100.725L97.6875 108.049C97.4987 108.928 97.2155 109.641 96.8379 110.188C96.4603 110.734 95.9948 111.132 95.4414 111.379C94.8945 111.633 94.2695 111.76 93.5664 111.76ZM101.398 108L104.416 93.7227H111.652L111.34 95.1875H105.754L104.768 99.8066H110.002L109.719 101.252H104.475L103.342 106.535H108.938L108.625 108H101.398ZM117.414 108.195C116.353 108.195 115.445 107.974 114.689 107.531C113.941 107.089 113.365 106.46 112.961 105.646C112.557 104.826 112.355 103.853 112.355 102.727C112.355 101.841 112.46 100.959 112.668 100.08C112.876 99.1947 113.186 98.3613 113.596 97.5801C114.012 96.7923 114.53 96.0957 115.148 95.4902C115.767 94.8783 116.486 94.3965 117.307 94.0449C118.133 93.6934 119.058 93.5176 120.08 93.5176C120.757 93.5176 121.376 93.5827 121.936 93.7129C122.502 93.8431 123.033 94.0417 123.527 94.3086L122.873 95.6855C122.495 95.4837 122.079 95.3177 121.623 95.1875C121.174 95.0508 120.66 94.9824 120.08 94.9824C119.279 94.9824 118.56 95.1289 117.922 95.4219C117.284 95.7083 116.724 96.1055 116.242 96.6133C115.767 97.1146 115.37 97.694 115.051 98.3516C114.738 99.0091 114.501 99.709 114.338 100.451C114.182 101.187 114.104 101.932 114.104 102.688C114.104 103.938 114.419 104.927 115.051 105.656C115.689 106.379 116.571 106.74 117.697 106.74C118.264 106.74 118.811 106.685 119.338 106.574C119.872 106.464 120.389 106.324 120.891 106.154V107.6C120.383 107.782 119.859 107.925 119.318 108.029C118.785 108.14 118.15 108.195 117.414 108.195ZM125.725 108L128.439 95.1875H124.455L124.768 93.7227H134.396L134.104 95.1875H130.119L127.395 108H125.725Z" fill="black"/>
</g>
</g>
</svg>
