<svg width="120" height="100" viewBox="0 0 120 100" fill="none" xmlns="http://www.w3.org/2000/svg">
<g id="Frame 5">
<path id="doggy-flippedTail" d="M34 64C36.6519 67.288 42.5 71.0001 42.5 71.0001V73C37.2557 70.7347 34.9494 69.5916 31.5 65C30.3954 63.5298 26 56.5 27.5 55.0001C30.5314 51.9688 31.1304 60.4421 34 64Z" fill="#8965E0" stroke="black"/>
<g id="body">
<g id="doggyBody">
<path d="M61 81.5C60.9757 81.2078 60.9478 80.8686 60.9178 80.5C62.9178 81 65.7773 80.847 69 80.5C69 80.5 70.6655 83.5 72 83.5C73.3346 83.5 79 84.1259 79 82C79 80 75 78.5 74 78C73 77.5 73 73.5 73 72C73 71.1056 72.3333 65.8333 72 63C72 60.6667 72.3 55.6 73.5 54C75 52 74 47.5 74 46C74 44.8 73.6667 41.1667 73 40C68.0775 39.8913 65.8315 38.6796 62.5 35C60.3333 38.8333 54.5 45.5 52.5 48.5C49.3325 52.3714 49.3389 55.2148 46.5 59C45 61 44 63.5 43 67C41.6345 71.7792 43 76 44 81C45 84.5 45.8 84 47 84H52C52.3333 83.6667 53 82.8 53 82C53 81.6271 52.7827 81.0947 52.5 80.5652C53.2375 80.6812 53.8014 81.1551 55 81C54.9444 82.9905 53.776 85 54.5 86C55.224 87 57.0893 87 58.5 87C59.3 87 62.7324 86.5703 63 85.5C63.5 83.5 61.1667 83.5 61 81.5Z" fill="white"/>
<path d="M60 62C59.5 63.8333 59.4485 65.6251 59.5 68C59.5565 70.6045 60.5 73.5 60.5 74.5C60.5 75.3 60.8333 79.5 61 81.5C61.1667 83.5 63.5 83.5 63 85.5C62.7324 86.5703 59.3 87 58.5 87C57.0893 87 55.224 87 54.5 86C53.776 85 54.9444 82.9905 55 81M55 81C55.0781 78.2054 53.5 74 53.5 74L52 67M55 81C53.8014 81.1551 53.2375 80.6812 52.5 80.5652M69 80.5C65.7773 80.847 62.9178 81 60.9178 80.5M69 80.5C69 80.5 70.6655 83.5 72 83.5C73.3346 83.5 79 84.1259 79 82C79 80 75 78.5 74 78C73 77.5 73 73.5 73 72C73 71.1056 72.3333 65.8333 72 63C72 60.6667 72.3 55.6 73.5 54C75 52 74 47.5 74 46C74 44.8 73.6667 41.1667 73 40C68.0775 39.8913 65.8315 38.6796 62.5 35C60.3333 38.8333 54.5 45.5 52.5 48.5C49.3325 52.3714 49.3389 55.2148 46.5 59C45 61 44 63.5 43 67C41.6345 71.7792 43 76 44 81C45 84.5 45.8 84 47 84H52C52.3333 83.6667 53 82.8 53 82C53 81.6271 52.7827 81.0947 52.5 80.5652M69 80.5C69 80.5 67.8333 74.6667 67.5 72.5C67.1667 70.3333 66 65 66 65C66 65 66.3333 61.1667 67 60M49 78C49 78 51 78.3333 51.5 79C51.7669 79.3559 52.1763 79.9587 52.5 80.5652" stroke="black" stroke-width="1.5"/>
</g>
<path id="Vector 5" d="M78 83C77.334 81.7052 76.9001 81.1452 76 80.5" stroke="black" stroke-width="0.5"/>
<path id="Vector 8" d="M60.5 86.5C60.5 85.5 60.5 84.5 60 84" stroke="black" stroke-width="0.5"/>
<path id="Vector 6" d="M75 81C75.6765 81.608 76.0115 82.0333 76.5 83" stroke="black" stroke-width="0.5"/>
<path id="Vector 7" d="M73.5 81C74.2113 81.6528 74.5565 82.0735 75 83" stroke="black" stroke-width="0.5"/>
<path id="Vector 10" d="M57 84C57.5 84.5 57.5 85.5 57.5 86.5" stroke="black" stroke-width="0.5"/>
<path id="Vector 11" d="M58.5 84C59 84.5 59 86 59 86.5" stroke="black" stroke-width="0.5"/>
</g>
<g id="head">
<path id="doggy-flippedHair" d="M81 17C77 16 73.6079 18.6362 72.8079 20.2362" stroke="black" stroke-width="1.5"/>
<g id="doggyHead">
<path d="M78.8079 35.7361C78.8079 36.9361 77.1412 37.5694 76.3079 37.7361C74.8079 37.7361 73.8079 36.2361 73.8079 35.2361C73.8079 34.2361 74.3079 32.7361 76.3079 32.7361C78.3079 32.7361 78.8079 34.2361 78.8079 35.7361Z" fill="black"/>
<path d="M64.3079 30.2361C63.7812 31.9706 63.5207 32.7208 62.5 34.5C61.2153 35.9668 60.3638 36.8704 59.3079 37.7361C57.405 38.8419 55.0632 39.4466 54 39.5C51.7953 39.6108 50.1854 39.5967 48.3079 38.2361C46.5984 36.4694 46.3079 35.2361 47.8079 33.2361C49.3079 32.2361 51.6334 32.3735 52.3079 32.2361C54.4148 32.1076 55.5218 30.8129 56.3079 29.7361C57.3478 28.452 57.2175 27.8241 57.8079 26.7361C58.1372 25.9815 58.4922 25.5425 59.3079 24.7361C60.0439 24.0111 60.8599 23.5337 62.5 23.5C63.5986 24.4029 63.8791 24.874 64.3079 26C64.8792 27.5 64.4133 28.6733 64.3079 30.2361Z" fill="#8965E0"/>
<path d="M68.8079 19.7361C69.6412 19.7361 72.0079 19.8361 72.8079 20.2361C73.8079 20.7361 75 21.5 75.5 22C76 22.5 77 24 77.5 25.5C77.7561 26.2684 78.3029 27.8954 79.3079 29.2361C80.6535 31.0311 82.3079 31.7361 82.8079 33.2361C83.3079 34.7361 83.1158 36.9722 81.8079 38.2361C80.5 39.5 78.5095 39.7593 76.3079 40V37.7361C77.1412 37.5694 78.8079 36.9361 78.8079 35.7361C78.8079 34.2361 78.3079 32.7361 76.3079 32.7361C74.3079 32.7361 73.8079 34.2361 73.8079 35.2361C73.8079 36.2361 74.8079 37.7361 76.3079 37.7361V40C72.6884 40.2898 71.3536 40.5921 68.5 39.5C67.0297 38.9373 66.1343 38.2677 65 37.5C63.7294 36.4968 63.1907 35.8262 62.5 34.5C63.5207 32.7208 63.7812 31.9706 64.3079 30.2361C64.4133 28.6733 64.8792 27.5 64.3079 26C63.8791 24.874 63.5986 24.4029 62.5 23.5C63.2125 22.037 63.7394 21.5927 65.3079 20.7361C66.3784 20.1599 67.5314 19.9339 68.8079 19.7361Z" fill="white"/>
<path d="M68.8079 19.7361L68.693 18.9949L68.7501 18.9861H68.8079V19.7361ZM77.5 25.5L78.2115 25.2628L77.5 25.5ZM76.3079 40L76.3894 40.7456L76.3786 40.7467L76.3677 40.7476L76.3079 40ZM64.3079 30.2361L65.0562 30.2866L65.0504 30.372L65.0255 30.454L64.3079 30.2361ZM65.3079 20.7361L64.9484 20.0778L64.9524 20.0757L65.3079 20.7361ZM68.5 39.5L68.7681 38.7995L68.7681 38.7995L68.5 39.5ZM65 37.5L64.5796 38.1211L64.5568 38.1057L64.5352 38.0886L65 37.5ZM64.3079 26L63.607 26.2669L64.3079 26ZM79.3079 29.2361L79.908 28.7862L79.908 28.7862L79.3079 29.2361ZM59.3079 37.7361L59.7834 38.3161L59.7368 38.3543L59.6847 38.3845L59.3079 37.7361ZM54 39.5L54.0377 40.2491L54 39.5ZM48.3079 38.2361L47.8678 38.8434L47.8146 38.8048L47.7689 38.7576L48.3079 38.2361ZM47.8079 33.2361L47.2079 32.7861L47.285 32.6833L47.3919 32.612L47.8079 33.2361ZM56.3079 29.7361L55.7021 29.2939L55.7132 29.2787L55.7251 29.2641L56.3079 29.7361ZM57.8079 26.7361L58.4953 27.0361L58.4824 27.0655L58.4671 27.0938L57.8079 26.7361ZM59.3079 24.7361L58.7806 24.2027L58.7816 24.2018L59.3079 24.7361ZM52.3079 32.2361L52.1582 31.5012L52.2097 31.4907L52.2622 31.4875L52.3079 32.2361ZM68.8079 18.9861C69.2454 18.9861 70.069 19.012 70.8908 19.0894C71.3018 19.1281 71.7235 19.1808 72.1018 19.2523C72.4646 19.3208 72.8468 19.417 73.1433 19.5653L72.4725 20.9069C72.369 20.8552 72.1553 20.7889 71.8234 20.7262C71.5068 20.6664 71.1348 20.6191 70.75 20.5828C69.98 20.5102 69.2037 20.4861 68.8079 20.4861V18.9861ZM73.1433 19.5653C74.166 20.0766 75.4442 20.8836 76.0303 21.4697L74.9697 22.5303C74.5558 22.1164 73.4498 21.3956 72.4725 20.9069L73.1433 19.5653ZM76.0303 21.4697C76.3425 21.7819 76.7541 22.3408 77.1431 22.9891C77.538 23.6472 77.9398 24.4476 78.2115 25.2628L76.7885 25.7372C76.5602 25.0524 76.212 24.3528 75.8569 23.7609C75.4959 23.1592 75.1575 22.7181 74.9697 22.5303L76.0303 21.4697ZM82.3291 38.7754C81.553 39.5254 80.5976 39.9533 79.5886 40.2258C78.5878 40.4961 77.4835 40.6259 76.3894 40.7456L76.2264 39.2544C77.3339 39.1334 78.3257 39.0132 79.1975 38.7777C80.0611 38.5444 80.7549 38.2107 81.2867 37.6968L82.3291 38.7754ZM61.8495 34.1268C62.8343 32.4101 63.0747 31.7157 63.5902 30.0182L65.0255 30.454C64.4876 32.2255 64.2071 33.0316 63.1505 34.8732L61.8495 34.1268ZM61.8257 23.1716C62.2006 22.4019 62.5565 21.8374 63.063 21.3502C63.5579 20.8741 64.1594 20.5088 64.9484 20.0779L65.6674 21.3943C64.888 21.82 64.4418 22.1052 64.1029 22.4312C63.7757 22.7459 63.5119 23.1352 63.1743 23.8284L61.8257 23.1716ZM64.9524 20.0757C66.1456 19.4335 67.4114 19.1936 68.693 18.9949L68.9228 20.4772C67.6515 20.6743 66.6111 20.8864 65.6633 21.3965L64.9524 20.0757ZM83.5194 32.9989C83.8102 33.8713 83.8935 34.929 83.7259 35.9465C83.5582 36.9643 83.1283 38.003 82.3291 38.7754L81.2867 37.6968C81.7953 37.2052 82.1155 36.4939 82.2458 35.7027C82.3762 34.9112 82.3056 34.1009 82.0964 33.4733L83.5194 32.9989ZM76.3677 40.7476C72.7934 41.0338 71.2747 41.3649 68.2319 40.2005L68.7681 38.7995C71.4325 39.8192 72.5833 39.5458 76.248 39.2524L76.3677 40.7476ZM68.2319 40.2005C66.664 39.6004 65.6914 38.8735 64.5796 38.1211L65.4204 36.8789C66.5773 37.6619 67.3955 38.2743 68.7681 38.7995L68.2319 40.2005ZM64.5352 38.0886C63.1817 37.0198 62.5746 36.2668 61.8348 34.8465L63.1652 34.1535C63.8069 35.3856 64.2772 35.9737 65.4648 36.9114L64.5352 38.0886ZM63.5596 30.1856C63.5879 29.7658 63.6402 29.3765 63.69 29.0216C63.7409 28.659 63.7875 28.3432 63.8144 28.0301C63.8666 27.4245 63.8397 26.8781 63.607 26.2669L65.0088 25.7331C65.3473 26.6219 65.3732 27.4122 65.3089 28.1588C65.2776 28.5219 65.2237 28.8862 65.1754 29.2301C65.1261 29.5816 65.0806 29.9249 65.0562 30.2866L63.5596 30.1856ZM63.607 26.2669C63.3974 25.7165 63.2467 25.3895 63.0415 25.0976C62.8368 24.8063 62.551 24.5127 62.0238 24.0794L62.9762 22.9206C63.5476 23.3902 63.9514 23.7836 64.2687 24.2351C64.5856 24.686 64.7896 25.1575 65.0088 25.7331L63.607 26.2669ZM78.2115 25.2628C78.4689 26.0349 78.9842 27.5539 79.908 28.7862L78.7078 29.6859C77.6216 28.2369 77.0434 26.5019 76.7885 25.7372L78.2115 25.2628ZM79.908 28.7862C80.5274 29.6125 81.2087 30.1795 81.8806 30.7928C82.5253 31.3813 83.202 32.0466 83.5194 32.9989L82.0964 33.4733C81.9138 32.9256 81.5133 32.4884 80.8694 31.9007C80.2527 31.3377 79.434 30.6547 78.7078 29.6859L79.908 28.7862ZM63.0642 34.9942C61.774 36.4672 60.8892 37.4094 59.7834 38.3161L58.8324 37.1561C59.8383 36.3313 60.6566 35.4664 61.9358 34.0058L63.0642 34.9942ZM59.6847 38.3845C57.6893 39.5442 55.2323 40.189 54.0377 40.2491L53.9623 38.7509C54.8941 38.7041 57.1208 38.1397 58.931 37.0876L59.6847 38.3845ZM55.7251 29.2641C56.1876 28.693 56.3776 28.2874 56.5248 27.8977C56.6706 27.5116 56.821 26.9823 57.1487 26.3784L58.4671 27.0938C58.2044 27.5779 58.1248 27.9066 57.9281 28.4275C57.7329 28.9447 57.4681 29.4951 56.8907 30.2081L55.7251 29.2641ZM57.1205 26.4361C57.5052 25.5545 57.9372 25.0366 58.7806 24.2027L59.8352 25.2694C59.0473 26.0484 58.7691 26.4086 58.4953 27.0361L57.1205 26.4361ZM58.7816 24.2018C59.1925 23.797 59.6567 23.4314 60.2701 23.1692C60.8804 22.9083 61.594 22.7684 62.4846 22.7502L62.5154 24.2498C61.7659 24.2652 61.2515 24.3809 60.8598 24.5484C60.4712 24.7145 60.1593 24.9501 59.8342 25.2704L58.7816 24.2018ZM54.0377 40.2491C51.8038 40.3613 49.9663 40.3642 47.8678 38.8434L48.748 37.6288C50.4046 38.8293 51.7867 38.8603 53.9623 38.7509L54.0377 40.2491ZM47.7689 38.7576C46.8912 37.8505 46.2413 36.9508 46.1103 35.9179C45.9755 34.8554 46.4101 33.8499 47.2079 32.7861L48.4079 33.6861C47.7057 34.6223 47.5355 35.2334 47.5984 35.7292C47.665 36.2547 48.0152 36.855 48.8469 37.7146L47.7689 38.7576ZM47.3919 32.612C48.289 32.0139 49.3863 31.7806 50.2734 31.6685C50.725 31.6115 51.1462 31.5833 51.4821 31.5613C51.8476 31.5373 52.0529 31.5226 52.1582 31.5012L52.4576 32.971C52.2257 33.0182 51.8873 33.0379 51.5803 33.0581C51.2435 33.0802 50.8632 33.1059 50.4615 33.1567C49.6423 33.2602 48.8267 33.4582 48.2239 33.8601L47.3919 32.612ZM52.2622 31.4875C54.0163 31.3805 54.9446 30.3316 55.7021 29.2939L56.9136 30.1783C56.099 31.2942 54.8133 32.8347 52.3536 32.9847L52.2622 31.4875ZM75.5579 40V37.7361H77.0579V40H75.5579ZM76.1608 37.0006C76.5139 36.93 77.0464 36.7571 77.4697 36.4896C77.9122 36.2099 78.0579 35.9489 78.0579 35.7361H79.5579C79.5579 36.7233 78.8702 37.3789 78.2711 37.7576C77.6527 38.1484 76.9352 38.3755 76.455 38.4715L76.1608 37.0006ZM78.0579 35.7361C78.0579 35.0457 77.9385 34.4716 77.6838 34.0896C77.4649 33.7613 77.0894 33.4861 76.3079 33.4861V31.9861C77.5264 31.9861 78.4008 32.4609 78.9319 33.2576C79.4272 34.0005 79.5579 34.9264 79.5579 35.7361H78.0579ZM76.3079 33.4861C75.522 33.4861 75.1286 33.7668 74.9079 34.0611C74.6599 34.3917 74.5579 34.8408 74.5579 35.2361H73.0579C73.0579 34.6314 73.2059 33.8305 73.7079 33.1611C74.2372 32.4554 75.0937 31.9861 76.3079 31.9861V33.4861ZM74.5579 35.2361C74.5579 35.5184 74.7159 35.9742 75.0598 36.3672C75.3913 36.7461 75.8239 36.9861 76.3079 36.9861V38.4861C75.2918 38.4861 74.4744 37.9761 73.931 37.355C73.3999 36.748 73.0579 35.9538 73.0579 35.2361H74.5579Z" fill="black"/>
</g>
<circle id="doggy-flippedLeftEye" cx="69.5" cy="27.5" r="1.5" fill="black"/>
<circle id="doggy-flippedRightEye" cx="74.5" cy="27.5" r="1.5" fill="black"/>
</g>
</g>
</svg>
