<svg width="120" height="100" viewBox="0 0 120 100" fill="none" xmlns="http://www.w3.org/2000/svg">
<g id="Frame 1">
<path id="doggyTail" d="M86 64C83.3481 67.288 77.5 71.0001 77.5 71.0001V73C82.7443 70.7347 85.0506 69.5916 88.5 65C89.6046 63.5298 94 56.5 92.5 55.0001C89.4686 51.9688 88.8696 60.4421 86 64Z" fill="#8965E0" stroke="black"/>
<g id="body">
<g id="doggyBody">
<path d="M59 81.5C59.0243 81.2078 59.0522 80.8686 59.0822 80.5C57.0822 81 54.2227 80.847 51 80.5C51 80.5 49.3345 83.5 48 83.5C46.6654 83.5 41 84.1259 41 82C41 80 45 78.5 46 78C47 77.5 47 73.5 47 72C47 71.1056 47.6667 65.8333 48 63C48 60.6667 47.7 55.6 46.5 54C45 52 46 47.5 46 46C46 44.8 46.3333 41.1667 47 40C51.9225 39.8913 54.1685 38.6796 57.5 35C59.6667 38.8333 65.5 45.5 67.5 48.5C70.6675 52.3714 70.6611 55.2148 73.5 59C75 61 76 63.5 77 67C78.3655 71.7792 77 76 76 81C75 84.5 74.2 84 73 84H68C67.6667 83.6667 67 82.8 67 82C67 81.6271 67.2173 81.0947 67.5 80.5652C66.7625 80.6812 66.1986 81.1551 65 81C65.0556 82.9905 66.224 85 65.5 86C64.776 87 62.9107 87 61.5 87C60.7 87 57.2676 86.5703 57 85.5C56.5 83.5 58.8333 83.5 59 81.5Z" fill="white"/>
<path d="M60 62C60.5 63.8333 60.5515 65.6251 60.5 68C60.4435 70.6045 59.5 73.5 59.5 74.5C59.5 75.3 59.1667 79.5 59 81.5C58.8333 83.5 56.5 83.5 57 85.5C57.2676 86.5703 60.7 87 61.5 87C62.9107 87 64.776 87 65.5 86C66.224 85 65.0556 82.9905 65 81M65 81C64.9219 78.2054 66.5 74 66.5 74L68 67M65 81C66.1986 81.1551 66.7625 80.6812 67.5 80.5652M51 80.5C54.2227 80.847 57.0822 81 59.0822 80.5M51 80.5C51 80.5 49.3345 83.5 48 83.5C46.6654 83.5 41 84.1259 41 82C41 80 45 78.5 46 78C47 77.5 47 73.5 47 72C47 71.1056 47.6667 65.8333 48 63C48 60.6667 47.7 55.6 46.5 54C45 52 46 47.5 46 46C46 44.8 46.3333 41.1667 47 40C51.9225 39.8913 54.1685 38.6796 57.5 35C59.6667 38.8333 65.5 45.5 67.5 48.5C70.6675 52.3714 70.6611 55.2148 73.5 59C75 61 76 63.5 77 67C78.3655 71.7792 77 76 76 81C75 84.5 74.2 84 73 84H68C67.6667 83.6667 67 82.8 67 82C67 81.6271 67.2173 81.0947 67.5 80.5652M51 80.5C51 80.5 52.1667 74.6667 52.5 72.5C52.8333 70.3333 54 65 54 65C54 65 53.6667 61.1667 53 60M71 78C71 78 69 78.3333 68.5 79C68.2331 79.3559 67.8237 79.9587 67.5 80.5652" stroke="black" stroke-width="1.5"/>
</g>
<path id="Vector 5" d="M42 83C42.666 81.7052 43.0999 81.1452 44 80.5" stroke="black" stroke-width="0.5"/>
<path id="Vector 8" d="M59.5 86.5C59.5 85.5 59.5 84.5 60 84" stroke="black" stroke-width="0.5"/>
<path id="Vector 6" d="M45 81C44.3235 81.608 43.9885 82.0333 43.5 83" stroke="black" stroke-width="0.5"/>
<path id="Vector 7" d="M46.5 81C45.7887 81.6528 45.4435 82.0735 45 83" stroke="black" stroke-width="0.5"/>
<path id="Vector 10" d="M63 84C62.5 84.5 62.5 85.5 62.5 86.5" stroke="black" stroke-width="0.5"/>
<path id="Vector 11" d="M61.5 84C61 84.5 61 86 61 86.5" stroke="black" stroke-width="0.5"/>
</g>
<g id="head">
<path id="doggyHair" d="M39 17C43 16 46.3921 18.6362 47.1921 20.2362" stroke="black" stroke-width="1.5"/>
<g id="doggyHead">
<path d="M41.1921 35.7361C41.1921 36.9361 42.8588 37.5694 43.6921 37.7361C45.1921 37.7361 46.1921 36.2361 46.1921 35.2361C46.1921 34.2361 45.6921 32.7361 43.6921 32.7361C41.6921 32.7361 41.1921 34.2361 41.1921 35.7361Z" fill="black"/>
<path d="M55.6921 30.2361C56.2188 31.9706 56.4793 32.7208 57.5 34.5C58.7847 35.9668 59.6362 36.8704 60.6921 37.7361C62.595 38.8419 64.9368 39.4466 66 39.5C68.2047 39.6108 69.8146 39.5967 71.6921 38.2361C73.4016 36.4694 73.6921 35.2361 72.1921 33.2361C70.6921 32.2361 68.3666 32.3735 67.6921 32.2361C65.5852 32.1076 64.4782 30.8129 63.6921 29.7361C62.6522 28.452 62.7825 27.8241 62.1921 26.7361C61.8628 25.9815 61.5078 25.5425 60.6921 24.7361C59.9561 24.0111 59.1401 23.5337 57.5 23.5C56.4014 24.4029 56.1209 24.874 55.6921 26C55.1208 27.5 55.5867 28.6733 55.6921 30.2361Z" fill="#8965E0"/>
<path d="M51.1921 19.7361C50.3588 19.7361 47.9921 19.8361 47.1921 20.2361C46.1921 20.7361 45 21.5 44.5 22C44 22.5 43 24 42.5 25.5C42.2439 26.2684 41.6971 27.8954 40.6921 29.2361C39.3465 31.0311 37.6921 31.7361 37.1921 33.2361C36.6921 34.7361 36.8842 36.9722 38.1921 38.2361C39.5 39.5 41.4905 39.7593 43.6921 40V37.7361C42.8588 37.5694 41.1921 36.9361 41.1921 35.7361C41.1921 34.2361 41.6921 32.7361 43.6921 32.7361C45.6921 32.7361 46.1921 34.2361 46.1921 35.2361C46.1921 36.2361 45.1921 37.7361 43.6921 37.7361V40C47.3116 40.2898 48.6464 40.5921 51.5 39.5C52.9703 38.9373 53.8657 38.2677 55 37.5C56.2706 36.4968 56.8093 35.8262 57.5 34.5C56.4793 32.7208 56.2188 31.9706 55.6921 30.2361C55.5867 28.6733 55.1208 27.5 55.6921 26C56.1209 24.874 56.4014 24.4029 57.5 23.5C56.7875 22.037 56.2606 21.5927 54.6921 20.7361C53.6216 20.1599 52.4686 19.9339 51.1921 19.7361Z" fill="white"/>
<path d="M51.1921 19.7361L51.307 18.9949L51.2499 18.9861H51.1921V19.7361ZM42.5 25.5L41.7885 25.2628L42.5 25.5ZM43.6921 40L43.6106 40.7456L43.6214 40.7467L43.6323 40.7476L43.6921 40ZM55.6921 30.2361L54.9438 30.2866L54.9496 30.372L54.9745 30.454L55.6921 30.2361ZM54.6921 20.7361L55.0516 20.0778L55.0476 20.0757L54.6921 20.7361ZM51.5 39.5L51.2319 38.7995L51.2319 38.7995L51.5 39.5ZM55 37.5L55.4204 38.1211L55.4432 38.1057L55.4648 38.0886L55 37.5ZM55.6921 26L56.393 26.2669L55.6921 26ZM40.6921 29.2361L40.092 28.7862L40.092 28.7862L40.6921 29.2361ZM60.6921 37.7361L60.2166 38.3161L60.2632 38.3543L60.3153 38.3845L60.6921 37.7361ZM66 39.5L65.9623 40.2491L66 39.5ZM71.6921 38.2361L72.1322 38.8434L72.1854 38.8048L72.2311 38.7576L71.6921 38.2361ZM72.1921 33.2361L72.7921 32.7861L72.715 32.6833L72.6081 32.612L72.1921 33.2361ZM63.6921 29.7361L64.2979 29.2939L64.2868 29.2787L64.2749 29.2641L63.6921 29.7361ZM62.1921 26.7361L61.5047 27.0361L61.5176 27.0655L61.5329 27.0938L62.1921 26.7361ZM60.6921 24.7361L61.2194 24.2027L61.2184 24.2018L60.6921 24.7361ZM67.6921 32.2361L67.8418 31.5012L67.7903 31.4907L67.7378 31.4875L67.6921 32.2361ZM51.1921 18.9861C50.7546 18.9861 49.931 19.012 49.1092 19.0894C48.6982 19.1281 48.2765 19.1808 47.8982 19.2523C47.5354 19.3208 47.1532 19.417 46.8567 19.5653L47.5275 20.9069C47.631 20.8552 47.8447 20.7889 48.1766 20.7262C48.4932 20.6664 48.8652 20.6191 49.25 20.5828C50.02 20.5102 50.7963 20.4861 51.1921 20.4861V18.9861ZM46.8567 19.5653C45.834 20.0766 44.5558 20.8836 43.9697 21.4697L45.0303 22.5303C45.4442 22.1164 46.5502 21.3956 47.5275 20.9069L46.8567 19.5653ZM43.9697 21.4697C43.6575 21.7819 43.2459 22.3408 42.8569 22.9891C42.462 23.6472 42.0602 24.4476 41.7885 25.2628L43.2115 25.7372C43.4398 25.0524 43.788 24.3528 44.1431 23.7609C44.5041 23.1592 44.8425 22.7181 45.0303 22.5303L43.9697 21.4697ZM37.6709 38.7754C38.447 39.5254 39.4024 39.9533 40.4114 40.2258C41.4122 40.4961 42.5165 40.6259 43.6106 40.7456L43.7736 39.2544C42.6661 39.1334 41.6743 39.0132 40.8025 38.7777C39.9389 38.5444 39.2451 38.2107 38.7133 37.6968L37.6709 38.7754ZM58.1505 34.1268C57.1657 32.4101 56.9253 31.7157 56.4098 30.0182L54.9745 30.454C55.5124 32.2255 55.7929 33.0316 56.8495 34.8732L58.1505 34.1268ZM58.1743 23.1716C57.7994 22.4019 57.4435 21.8374 56.937 21.3502C56.4421 20.8741 55.8406 20.5088 55.0516 20.0779L54.3326 21.3943C55.112 21.82 55.5582 22.1052 55.8971 22.4312C56.2243 22.7459 56.4881 23.1352 56.8257 23.8284L58.1743 23.1716ZM55.0476 20.0757C53.8544 19.4335 52.5886 19.1936 51.307 18.9949L51.0772 20.4772C52.3485 20.6743 53.3889 20.8864 54.3367 21.3965L55.0476 20.0757ZM36.4806 32.9989C36.1898 33.8713 36.1065 34.929 36.2741 35.9465C36.4418 36.9643 36.8717 38.003 37.6709 38.7754L38.7133 37.6968C38.2047 37.2052 37.8845 36.4939 37.7542 35.7027C37.6238 34.9112 37.6944 34.1009 37.9036 33.4733L36.4806 32.9989ZM43.6323 40.7476C47.2066 41.0338 48.7253 41.3649 51.7681 40.2005L51.2319 38.7995C48.5675 39.8192 47.4167 39.5458 43.752 39.2524L43.6323 40.7476ZM51.7681 40.2005C53.336 39.6004 54.3086 38.8735 55.4204 38.1211L54.5796 36.8789C53.4227 37.6619 52.6045 38.2743 51.2319 38.7995L51.7681 40.2005ZM55.4648 38.0886C56.8183 37.0198 57.4254 36.2668 58.1652 34.8465L56.8348 34.1535C56.1931 35.3856 55.7228 35.9737 54.5352 36.9114L55.4648 38.0886ZM56.4404 30.1856C56.4121 29.7658 56.3598 29.3765 56.31 29.0216C56.2591 28.659 56.2125 28.3432 56.1856 28.0301C56.1334 27.4245 56.1603 26.8781 56.393 26.2669L54.9912 25.7331C54.6527 26.6219 54.6268 27.4122 54.6911 28.1588C54.7224 28.5219 54.7763 28.8862 54.8246 29.2301C54.8739 29.5816 54.9194 29.9249 54.9438 30.2866L56.4404 30.1856ZM56.393 26.2669C56.6026 25.7165 56.7533 25.3895 56.9585 25.0976C57.1632 24.8063 57.449 24.5127 57.9762 24.0794L57.0238 22.9206C56.4524 23.3902 56.0486 23.7836 55.7313 24.2351C55.4144 24.686 55.2104 25.1575 54.9912 25.7331L56.393 26.2669ZM41.7885 25.2628C41.5311 26.0349 41.0158 27.5539 40.092 28.7862L41.2922 29.6859C42.3784 28.2369 42.9566 26.5019 43.2115 25.7372L41.7885 25.2628ZM40.092 28.7862C39.4726 29.6125 38.7913 30.1795 38.1194 30.7928C37.4747 31.3813 36.798 32.0466 36.4806 32.9989L37.9036 33.4733C38.0862 32.9256 38.4867 32.4884 39.1306 31.9007C39.7473 31.3377 40.566 30.6547 41.2922 29.6859L40.092 28.7862ZM56.9358 34.9942C58.226 36.4672 59.1108 37.4094 60.2166 38.3161L61.1676 37.1561C60.1617 36.3313 59.3434 35.4664 58.0642 34.0058L56.9358 34.9942ZM60.3153 38.3845C62.3107 39.5442 64.7677 40.189 65.9623 40.2491L66.0377 38.7509C65.1059 38.7041 62.8792 38.1397 61.069 37.0876L60.3153 38.3845ZM64.2749 29.2641C63.8124 28.693 63.6224 28.2874 63.4752 27.8977C63.3294 27.5116 63.179 26.9823 62.8513 26.3784L61.5329 27.0938C61.7956 27.5779 61.8752 27.9066 62.0719 28.4275C62.2671 28.9447 62.5319 29.4951 63.1093 30.2081L64.2749 29.2641ZM62.8795 26.4361C62.4948 25.5545 62.0628 25.0366 61.2194 24.2027L60.1648 25.2694C60.9527 26.0484 61.2309 26.4086 61.5047 27.0361L62.8795 26.4361ZM61.2184 24.2018C60.8075 23.797 60.3433 23.4314 59.7299 23.1692C59.1196 22.9083 58.406 22.7684 57.5154 22.7502L57.4846 24.2498C58.2341 24.2652 58.7485 24.3809 59.1402 24.5484C59.5288 24.7145 59.8407 24.9501 60.1658 25.2704L61.2184 24.2018ZM65.9623 40.2491C68.1962 40.3613 70.0337 40.3642 72.1322 38.8434L71.252 37.6288C69.5954 38.8293 68.2133 38.8603 66.0377 38.7509L65.9623 40.2491ZM72.2311 38.7576C73.1088 37.8505 73.7587 36.9508 73.8897 35.9179C74.0245 34.8554 73.5899 33.8499 72.7921 32.7861L71.5921 33.6861C72.2943 34.6223 72.4645 35.2334 72.4016 35.7292C72.335 36.2547 71.9848 36.855 71.1531 37.7146L72.2311 38.7576ZM72.6081 32.612C71.711 32.0139 70.6137 31.7806 69.7266 31.6685C69.275 31.6115 68.8538 31.5833 68.5179 31.5613C68.1524 31.5373 67.9471 31.5226 67.8418 31.5012L67.5424 32.971C67.7743 33.0182 68.1127 33.0379 68.4197 33.0581C68.7565 33.0802 69.1368 33.1059 69.5385 33.1567C70.3577 33.2602 71.1733 33.4582 71.7761 33.8601L72.6081 32.612ZM67.7378 31.4875C65.9837 31.3805 65.0554 30.3316 64.2979 29.2939L63.0864 30.1783C63.901 31.2942 65.1867 32.8347 67.6464 32.9847L67.7378 31.4875ZM44.4421 40V37.7361H42.9421V40H44.4421ZM43.8392 37.0006C43.4861 36.93 42.9536 36.7571 42.5303 36.4896C42.0878 36.2099 41.9421 35.9489 41.9421 35.7361H40.4421C40.4421 36.7233 41.1298 37.3789 41.7289 37.7576C42.3473 38.1484 43.0648 38.3755 43.545 38.4715L43.8392 37.0006ZM41.9421 35.7361C41.9421 35.0457 42.0615 34.4716 42.3162 34.0896C42.5351 33.7613 42.9106 33.4861 43.6921 33.4861V31.9861C42.4736 31.9861 41.5992 32.4609 41.0681 33.2576C40.5728 34.0005 40.4421 34.9264 40.4421 35.7361H41.9421ZM43.6921 33.4861C44.478 33.4861 44.8714 33.7668 45.0921 34.0611C45.3401 34.3917 45.4421 34.8408 45.4421 35.2361H46.9421C46.9421 34.6314 46.7941 33.8305 46.2921 33.1611C45.7628 32.4554 44.9063 31.9861 43.6921 31.9861V33.4861ZM45.4421 35.2361C45.4421 35.5184 45.2841 35.9742 44.9402 36.3672C44.6087 36.7461 44.1761 36.9861 43.6921 36.9861V38.4861C44.7082 38.4861 45.5256 37.9761 46.069 37.355C46.6001 36.748 46.9421 35.9538 46.9421 35.2361H45.4421Z" fill="black"/>
</g>
<circle id="doggyLeftEye" cx="50.5" cy="27.5" r="1.5" fill="black"/>
<circle id="doggyRightEye" cx="45.5" cy="27.5" r="1.5" fill="black"/>
</g>
</g>
</svg>
