<svg width="62" height="50" viewBox="0 0 62 50" fill="none" xmlns="http://www.w3.org/2000/svg">
<g id="Frame 3">
<g id="body">
<path id="doggyBody" d="M20.757 37.4626C21.7359 37.4626 24.2255 37.6636 24.2255 33.7484C24.2255 31.6624 24.7616 29.0973 24.9117 26.6663L26.061 22.3331L46.2517 28.5234C46.2322 30.7541 46.0176 35.3326 46.0176 35.3326C46.0176 35.3326 45.6399 37.8087 46.2517 39.6658C46.8636 41.5228 47.5074 43.7383 49.9228 42.7609C52.982 41.5228 51.7583 37.8087 51.7583 35.9516C51.7583 34.5675 52.136 28.5234 51.1464 26.6663C50.1569 24.8092 28.5084 21.0951 28.5084 21.0951L24.8374 18L19.9426 21.7141C19.9426 21.7141 18.2027 25.6825 18.1071 29.1424C18.039 31.6067 17.9046 33.2026 18.1071 34.7135C18.3096 36.2245 19.0307 37.4626 20.757 37.4626Z" fill="white" stroke="black" stroke-width="1.5"/>
<path id="Vector 8" d="M22 38C22.5 37 22 36 22 35" stroke="black" stroke-width="0.5"/>
<path id="Vector 12" d="M50.5 42.5C50.5 41.3 50.5 40.5 50 39.5" stroke="black" stroke-width="0.5"/>
<path id="Vector 10" d="M20 35C19.5 35.5 19.875 37 20.375 38" stroke="black" stroke-width="0.5"/>
<path id="Vector 13" d="M48 40C48 41 48 42 48.5 43" stroke="black" stroke-width="0.5"/>
<path id="Vector 11" d="M21 34.5C20.5 36.5 21.5 36.9 21.5 37.5" stroke="black" stroke-width="0.5"/>
<path id="Vector 14" d="M49 40C49 40.6 49.5 42.9 49.5 43.5" stroke="black" stroke-width="0.5"/>
</g>
<g id="head">
<path id="doggyHeadHair" d="M46.7143 4.27563C41.7132 3.02531 37.4721 6.32134 36.4719 8.32178" stroke="black" stroke-width="1.5"/>
<g id="doggyHead">
<path d="M43.9736 27.7009C43.9736 29.2013 41.8898 29.9931 40.8479 30.2015C38.9724 30.2015 37.7222 28.3261 37.7222 27.0758C37.7222 25.8255 38.3473 23.9501 40.8479 23.9501C43.3484 23.9501 43.9736 25.8255 43.9736 27.7009Z" fill="black"/>
<path d="M25.8445 20.8244C25.186 22.993 24.8603 23.9311 23.5842 26.1555C21.9779 27.9894 20.9133 29.1191 19.5931 30.2015C17.214 31.5841 14.2861 32.3401 12.9568 32.4069C10.2002 32.5454 8.1875 32.5278 5.84007 30.8266C3.70276 28.6178 3.33952 27.0758 5.21494 24.5753C7.09035 23.325 9.99791 23.4968 10.8412 23.325C13.4754 23.1643 14.8594 21.5456 15.8423 20.1993C17.1425 18.5938 16.9795 17.8088 17.7177 16.4485C18.1294 15.5051 18.5733 14.9561 19.5931 13.9479C20.5134 13.0414 21.5336 12.4445 23.5842 12.4025C24.9577 13.5313 25.3084 14.1204 25.8445 15.5282C26.5588 17.4036 25.9764 18.8705 25.8445 20.8244Z" fill="#8965E0"/>
<path d="M31.4708 7.69653C32.5127 7.69653 35.4717 7.8216 36.4719 8.32171C37.7222 8.94685 39.2126 9.90191 39.8378 10.5271C40.4629 11.1522 41.7132 13.0276 42.3383 14.903C42.6586 15.8637 43.3422 17.8979 44.5987 19.5742C46.281 21.8185 48.3495 22.6998 48.9747 24.5753C49.5998 26.4507 49.3596 29.2464 47.7244 30.8266C46.0892 32.4069 43.6005 32.7311 40.8479 33.032V30.2015C41.8898 29.9931 43.9736 29.2013 43.9736 27.7009C43.9736 25.8255 43.3484 23.9501 40.8479 23.9501C38.3473 23.9501 37.7222 25.8255 37.7222 27.0758C37.7222 28.3261 38.9724 30.2015 40.8479 30.2015V33.032C36.3225 33.3944 34.6536 33.7723 31.0858 32.4069C29.2476 31.7034 28.1281 30.8662 26.7099 29.9063C25.1213 28.652 24.4478 27.8136 23.5842 26.1555C24.8603 23.9311 25.186 22.993 25.8445 20.8244C25.9764 18.8705 26.5588 17.4036 25.8445 15.5282C25.3084 14.1204 24.9577 13.5313 23.5842 12.4025C24.475 10.5733 25.1338 10.0178 27.0948 8.94681C28.4332 8.22646 29.8748 7.9439 31.4708 7.69653Z" fill="white"/>
<path d="M31.4708 7.69653L31.3559 6.95538L31.413 6.94653H31.4708V7.69653ZM42.3383 14.903L43.0498 14.6658L42.3383 14.903ZM40.8479 33.032L40.9294 33.7776L40.9186 33.7788L40.9077 33.7796L40.8479 33.032ZM25.8445 20.8244L26.5928 20.8749L26.5871 20.9604L26.5622 21.0424L25.8445 20.8244ZM27.0948 8.94681L26.7353 8.28857L26.7394 8.28639L27.0948 8.94681ZM31.0858 32.4069L31.3539 31.7064L31.3539 31.7064L31.0858 32.4069ZM26.7099 29.9063L26.2895 30.5274L26.2667 30.512L26.2451 30.495L26.7099 29.9063ZM25.8445 15.5282L25.1436 15.7951L25.8445 15.5282ZM44.5987 19.5742L45.1988 19.1243L45.1988 19.1243L44.5987 19.5742ZM19.5931 30.2015L20.0686 30.7815L20.0221 30.8197L19.97 30.8499L19.5931 30.2015ZM12.9568 32.4069L12.9944 33.1559L12.9568 32.4069ZM5.84007 30.8266L5.39996 31.4339L5.34677 31.3954L5.30109 31.3482L5.84007 30.8266ZM5.21494 24.5753L4.61494 24.1253L4.69202 24.0225L4.79891 23.9512L5.21494 24.5753ZM15.8423 20.1993L15.2365 19.7571L15.2476 19.7419L15.2594 19.7273L15.8423 20.1993ZM17.7177 16.4485L18.4051 16.7484L18.3922 16.7779L18.3769 16.8062L17.7177 16.4485ZM19.5931 13.9479L19.0658 13.4146L19.0668 13.4136L19.5931 13.9479ZM10.8412 23.325L10.6914 22.5901L10.743 22.5796L10.7955 22.5764L10.8412 23.325ZM31.4708 6.94653C32.0126 6.94653 33.0364 6.97867 34.0573 7.07489C34.568 7.12302 35.089 7.18819 35.5542 7.27608C36.004 7.36104 36.4608 7.47762 36.8073 7.65089L36.1365 8.99253C35.9829 8.91575 35.6947 8.82915 35.2758 8.75001C34.8723 8.67379 34.401 8.61393 33.9166 8.56827C32.9474 8.47693 31.9708 8.44653 31.4708 8.44653V6.94653ZM36.8073 7.65089C38.0802 8.28736 39.6569 9.2855 40.3681 9.99672L39.3075 11.0574C38.7684 10.5183 37.3641 9.60634 36.1365 8.99253L36.8073 7.65089ZM40.3681 9.99672C40.7429 10.3715 41.2483 11.0555 41.7312 11.8603C42.2199 12.6748 42.7155 13.6629 43.0498 14.6658L41.6268 15.1402C41.336 14.2677 40.8939 13.3804 40.4449 12.6321C39.9901 11.874 39.5578 11.3077 39.3075 11.0574L40.3681 9.99672ZM48.2456 31.366C47.3058 32.2741 46.144 32.7973 44.9007 33.1331C43.6655 33.4668 42.299 33.6278 40.9294 33.7776L40.7664 32.2865C42.1494 32.1353 43.4035 31.9838 44.5096 31.685C45.6075 31.3885 46.5078 30.9594 47.2032 30.2873L48.2456 31.366ZM22.9336 25.7823C24.1739 23.6204 24.4796 22.7381 25.1269 20.6065L26.5622 21.0424C25.8924 23.2479 25.5467 24.2418 24.2347 26.5287L22.9336 25.7823ZM22.9099 12.0741C23.3739 11.1213 23.8074 10.4375 24.4182 9.84986C25.0174 9.27342 25.75 8.82671 26.7353 8.28858L27.4543 9.60504C26.4786 10.1379 25.9013 10.5045 25.4581 10.9308C25.0266 11.346 24.6852 11.8546 24.2584 12.7309L22.9099 12.0741ZM26.7394 8.28639C28.2005 7.50001 29.7548 7.20355 31.3559 6.95538L31.5856 8.43768C29.9949 8.68425 28.666 8.95291 27.4503 9.60723L26.7394 8.28639ZM49.6862 24.3381C50.0395 25.3981 50.1421 26.6896 49.9372 27.9336C49.7322 29.1777 49.2085 30.4354 48.2456 31.366L47.2032 30.2873C47.8755 29.6376 48.2895 28.7073 48.4571 27.6897C48.6248 26.6719 48.5349 25.6278 48.2631 24.8124L49.6862 24.3381ZM40.9077 33.7796C36.4275 34.1384 34.5747 34.5451 30.8178 33.1073L31.3539 31.7064C34.7325 32.9994 36.2174 32.6504 40.788 32.2844L40.9077 33.7796ZM30.8178 33.1073C28.8818 32.3664 27.6851 31.472 26.2895 30.5274L27.1302 29.2852C28.5711 30.2604 29.6134 31.0403 31.3539 31.7064L30.8178 33.1073ZM26.2451 30.495C24.5735 29.1751 23.8316 28.2542 22.919 26.502L24.2493 25.809C25.0639 27.373 25.6691 28.1289 27.1746 29.3177L26.2451 30.495ZM25.0962 20.7739C25.1311 20.2564 25.1956 19.7754 25.2579 19.3321C25.3212 18.8811 25.3803 18.4802 25.4146 18.0825C25.4813 17.3076 25.4479 16.5939 25.1436 15.7951L26.5454 15.2612C26.9554 16.3378 26.9879 17.2953 26.909 18.2112C26.8705 18.6589 26.804 19.1083 26.7433 19.5405C26.6816 19.9804 26.6238 20.4155 26.5928 20.8749L25.0962 20.7739ZM25.1436 15.7951C24.8804 15.1038 24.6853 14.6769 24.4148 14.292C24.1447 13.9078 23.7726 13.5281 23.108 12.9819L24.0604 11.823C24.7693 12.4057 25.2593 12.885 25.642 13.4295C26.0242 13.9733 26.2726 14.5448 26.5454 15.2612L25.1436 15.7951ZM43.0498 14.6658C43.3713 15.6302 44.0235 17.5564 45.1988 19.1243L43.9986 20.024C42.6608 18.2394 41.9458 16.0972 41.6268 15.1402L43.0498 14.6658ZM45.1988 19.1243C45.9866 20.1752 46.8556 20.8986 47.6888 21.6591C48.4947 22.3948 49.3062 23.1981 49.6862 24.3381L48.2631 24.8124C48.018 24.077 47.4827 23.5019 46.6775 22.767C45.8996 22.0569 44.8931 21.2174 43.9986 20.024L45.1988 19.1243ZM24.1484 26.6497C22.5366 28.4899 21.4387 29.6582 20.0686 30.7815L19.1176 29.6215C20.3878 28.5801 21.4192 27.489 23.02 25.6613L24.1484 26.6497ZM19.97 30.8499C17.4983 32.2863 14.4552 33.0825 12.9944 33.1559L12.9191 31.6578C14.117 31.5976 16.9297 30.8819 19.2163 29.553L19.97 30.8499ZM15.2594 19.7273C15.8521 18.9955 16.0991 18.4703 16.2891 17.9671C16.4777 17.4675 16.6569 16.8308 17.0585 16.0908L18.3769 16.8062C18.0403 17.4264 17.9319 17.8625 17.6924 18.4969C17.4543 19.1276 17.1327 19.7977 16.4251 20.6713L15.2594 19.7273ZM17.0303 16.1485C17.4975 15.078 18.0183 14.4502 19.0658 13.4146L20.1204 14.4813C19.1284 15.4621 18.7613 15.9321 18.4051 16.7484L17.0303 16.1485ZM19.0668 13.4136C19.5698 12.9181 20.1312 12.4773 20.87 12.1614C21.6056 11.8469 22.4729 11.6751 23.5688 11.6526L23.5996 13.1523C22.6449 13.1719 21.9768 13.3196 21.4596 13.5407C20.9456 13.7604 20.5367 14.0713 20.1194 14.4822L19.0668 13.4136ZM12.9944 33.1559C10.2088 33.296 7.96834 33.2953 5.39996 31.4339L6.28018 30.2193C8.40665 31.7604 10.1917 31.7949 12.9191 31.6578L12.9944 33.1559ZM5.30109 31.3482C4.20942 30.22 3.43441 29.1325 3.27869 27.9047C3.11921 26.6472 3.6294 25.4393 4.61494 24.1253L5.81494 25.0253C4.92506 26.2118 4.67916 27.0252 4.76677 27.716C4.85815 28.4365 5.33341 29.2245 6.37906 30.3051L5.30109 31.3482ZM4.79891 23.9512C5.8838 23.228 7.2204 22.9407 8.32108 22.8016C8.87936 22.7311 9.40093 22.6962 9.82095 22.6686C10.2707 22.6391 10.5439 22.6201 10.6914 22.5901L10.9909 24.0599C10.7168 24.1157 10.3103 24.1397 9.91916 24.1654C9.49823 24.193 9.01758 24.2255 8.50914 24.2898C7.47637 24.4203 6.42149 24.6723 5.63096 25.1993L4.79891 23.9512ZM10.7955 22.5764C13.0769 22.4372 14.2822 21.0643 15.2365 19.7571L16.448 20.6415C15.4366 22.0269 13.8739 23.8914 10.8868 24.0736L10.7955 22.5764ZM40.0979 33.032V30.2015H41.5979V33.032H40.0979ZM40.7008 29.4661C41.1582 29.3746 41.8471 29.1516 42.4007 28.8017C42.9736 28.4397 43.2236 28.0639 43.2236 27.7009H44.7236C44.7236 28.8383 43.9316 29.6086 43.2021 30.0697C42.4534 30.5429 41.5795 30.82 40.9949 30.9369L40.7008 29.4661ZM43.2236 27.7009C43.2236 26.8229 43.0729 26.0611 42.7244 25.5383C42.4116 25.0692 41.8797 24.7001 40.8479 24.7001V23.2001C42.3166 23.2001 43.3475 23.7688 43.9724 24.7062C44.5616 25.59 44.7236 26.7036 44.7236 27.7009H43.2236ZM40.8479 24.7001C39.8117 24.7001 39.2619 25.0747 38.9473 25.4941C38.6055 25.9499 38.4722 26.5553 38.4722 27.0758H36.9722C36.9722 26.346 37.1514 25.3886 37.7473 24.5941C38.3705 23.7633 39.3834 23.2001 40.8479 23.2001V24.7001ZM38.4722 27.0758C38.4722 27.4833 38.6928 28.0954 39.1462 28.6136C39.5872 29.1176 40.1762 29.4515 40.8479 29.4515V30.9515C39.6441 30.9515 38.6703 30.3477 38.0173 29.6014C37.3767 28.8693 36.9722 27.9186 36.9722 27.0758H38.4722Z" fill="black"/>
</g>
<circle id="doggyHeadRightEye" cx="38.75" cy="17.75" r="1.75" fill="black"/>
<circle id="doggyHeadLeftEye" cx="31.75" cy="17.75" r="1.75" fill="black"/>
</g>
</g>
</svg>
