<svg width="432" height="200" viewBox="0 0 432 200" fill="none" xmlns="http://www.w3.org/2000/svg">
<g id="Frame 10">
<g id="bigFolder">
<path id="bigFolderBack" d="M42.9999 46C36.9999 46 28 46 28 59.9999V141.5H150.5V88.9999C150.5 68.9999 140.5 64.3333 135.5 64.4999H65.5V57.5C65.5 54.0459 61.5 46 56 46H43H42.9999Z" fill="#FBC379" stroke="black" stroke-width="2"/>
<g id="midFolder">
<path id="midFolderBack" d="M213.02 64C208.612 64 202 64 202 74.2618V134H292V95.5183C292 80.8586 284.653 77.438 280.98 77.5602H229.551V72.4293C229.551 69.8975 226.612 64 222.571 64H213.02H213.02Z" fill="#FBC379" stroke="black" stroke-width="2"/>
<g id="smallFolder">
<path id="smallFolderBack" d="M347.837 77C344.702 77 340 77 340 84.3298V127H404V99.5131C404 89.0418 398.776 86.5986 396.163 86.6858H359.592V83.0209C359.592 81.2125 357.502 77 354.629 77H347.837H347.837Z" fill="#FBC379" stroke="black" stroke-width="2"/>
<g id="smallFrontGroup">
<path id="smallFolderFront" d="M347.883 98.5457C347.094 101.173 341.905 119.566 340.263 126.135C339.606 128.762 340.525 133.492 345.255 133.754C349.985 134.017 396.229 134.175 398.331 133.754C400.433 133.334 403.644 131.127 404.374 128.499C407.002 119.04 412.204 101.173 411.994 98.0202C411.784 94.8672 408.315 93.0394 406.213 93.0279C390.098 92.9403 357.867 92.8177 354.714 93.0279C351.561 93.2381 348.671 95.9182 347.883 98.5457Z" fill="#FED9A2" stroke="black" stroke-width="2"/>
<path id="SCENARIO" d="M353.238 119.117C352.812 119.117 352.439 119.086 352.119 119.023C351.799 118.961 351.502 118.865 351.229 118.736V117.758C351.475 117.883 351.764 117.998 352.096 118.104C352.428 118.205 352.812 118.256 353.25 118.256C353.52 118.256 353.777 118.225 354.023 118.162C354.27 118.1 354.488 118.002 354.68 117.869C354.875 117.736 355.027 117.566 355.137 117.359C355.25 117.152 355.307 116.906 355.307 116.621C355.307 116.391 355.256 116.188 355.154 116.012C355.057 115.832 354.9 115.66 354.686 115.496C354.471 115.328 354.189 115.148 353.842 114.957C353.545 114.781 353.277 114.598 353.039 114.406C352.805 114.211 352.619 113.984 352.482 113.727C352.346 113.465 352.277 113.148 352.277 112.777C352.277 112.379 352.352 112.027 352.5 111.723C352.648 111.414 352.852 111.156 353.109 110.949C353.371 110.738 353.67 110.58 354.006 110.475C354.346 110.365 354.705 110.311 355.084 110.311C355.533 110.311 355.924 110.355 356.256 110.445C356.588 110.535 356.908 110.656 357.217 110.809L356.836 111.652C356.617 111.535 356.354 111.43 356.045 111.336C355.74 111.238 355.42 111.189 355.084 111.189C354.838 111.189 354.607 111.223 354.393 111.289C354.182 111.352 353.996 111.447 353.836 111.576C353.676 111.705 353.551 111.865 353.461 112.057C353.371 112.244 353.326 112.463 353.326 112.713C353.326 112.967 353.373 113.178 353.467 113.346C353.564 113.514 353.705 113.666 353.889 113.803C354.076 113.939 354.307 114.088 354.58 114.248C354.928 114.451 355.234 114.654 355.5 114.857C355.766 115.057 355.973 115.289 356.121 115.555C356.27 115.816 356.344 116.146 356.344 116.545C356.344 116.975 356.268 117.352 356.115 117.676C355.967 117.996 355.754 118.264 355.477 118.479C355.199 118.689 354.871 118.85 354.492 118.959C354.113 119.064 353.695 119.117 353.238 119.117ZM360.961 119.117C360.324 119.117 359.779 118.984 359.326 118.719C358.877 118.453 358.531 118.076 358.289 117.588C358.047 117.096 357.926 116.512 357.926 115.836C357.926 115.305 357.988 114.775 358.113 114.248C358.238 113.717 358.424 113.217 358.67 112.748C358.92 112.275 359.23 111.857 359.602 111.494C359.973 111.127 360.404 110.838 360.896 110.627C361.393 110.416 361.947 110.311 362.561 110.311C362.967 110.311 363.338 110.35 363.674 110.428C364.014 110.506 364.332 110.625 364.629 110.785L364.236 111.611C364.01 111.49 363.76 111.391 363.486 111.312C363.217 111.23 362.908 111.189 362.561 111.189C362.08 111.189 361.648 111.277 361.266 111.453C360.883 111.625 360.547 111.863 360.258 112.168C359.973 112.469 359.734 112.816 359.543 113.211C359.355 113.605 359.213 114.025 359.115 114.471C359.021 114.912 358.975 115.359 358.975 115.812C358.975 116.562 359.164 117.156 359.543 117.594C359.926 118.027 360.455 118.244 361.131 118.244C361.471 118.244 361.799 118.211 362.115 118.145C362.436 118.078 362.746 117.994 363.047 117.893V118.76C362.742 118.869 362.428 118.955 362.104 119.018C361.783 119.084 361.402 119.117 360.961 119.117ZM364.605 119L366.416 110.434H370.758L370.57 111.312H367.219L366.627 114.084H369.768L369.598 114.951H366.451L365.771 118.121H369.129L368.941 119H364.605ZM370.793 119L372.604 110.434H373.646L376.359 117.605H376.389C376.416 117.41 376.451 117.184 376.494 116.926C376.537 116.664 376.586 116.393 376.641 116.111C376.695 115.826 376.75 115.555 376.805 115.297L377.848 110.434H378.785L376.975 119H375.932L373.201 111.811H373.172C373.152 111.943 373.127 112.102 373.096 112.285C373.068 112.469 373.035 112.668 372.996 112.883C372.961 113.098 372.922 113.318 372.879 113.545C372.836 113.768 372.791 113.984 372.744 114.195L371.73 119H370.793ZM378.076 119L382.77 110.434H383.807L384.891 119H383.912L383.572 116.27H380.613L379.16 119H378.076ZM381.088 115.385H383.473L383.244 113.387C383.217 113.098 383.188 112.781 383.156 112.438C383.125 112.09 383.105 111.779 383.098 111.506H383.062C382.938 111.803 382.795 112.115 382.635 112.443C382.479 112.768 382.312 113.096 382.137 113.428L381.088 115.385ZM385.98 119L387.791 110.434H389.666C390.541 110.434 391.197 110.615 391.635 110.979C392.072 111.338 392.291 111.871 392.291 112.578C392.291 113 392.219 113.385 392.074 113.732C391.93 114.076 391.697 114.373 391.377 114.623C391.061 114.873 390.645 115.068 390.129 115.209L391.535 119H390.457L389.215 115.426H387.721L386.965 119H385.98ZM387.896 114.582H388.934C389.328 114.582 389.672 114.537 389.965 114.447C390.258 114.354 390.5 114.223 390.691 114.055C390.887 113.887 391.031 113.684 391.125 113.445C391.223 113.207 391.271 112.941 391.271 112.648C391.271 112.152 391.129 111.803 390.844 111.6C390.562 111.396 390.137 111.295 389.566 111.295H388.605L387.896 114.582ZM392.848 119L394.67 110.434H395.643L393.82 119H392.848ZM399.639 119.117C398.951 119.117 398.371 118.98 397.898 118.707C397.43 118.434 397.076 118.047 396.838 117.547C396.6 117.047 396.48 116.459 396.48 115.783C396.48 115.295 396.523 114.822 396.609 114.365C396.699 113.908 396.828 113.477 396.996 113.07C397.164 112.66 397.371 112.287 397.617 111.951C397.867 111.611 398.152 111.318 398.473 111.072C398.793 110.826 399.146 110.637 399.533 110.504C399.924 110.367 400.346 110.299 400.799 110.299C401.76 110.299 402.51 110.598 403.049 111.195C403.592 111.789 403.863 112.615 403.863 113.674C403.863 114.146 403.824 114.609 403.746 115.062C403.668 115.512 403.551 115.939 403.395 116.346C403.238 116.752 403.043 117.125 402.809 117.465C402.574 117.801 402.301 118.092 401.988 118.338C401.676 118.584 401.324 118.775 400.934 118.912C400.543 119.049 400.111 119.117 399.639 119.117ZM399.674 118.244C400.01 118.244 400.32 118.186 400.605 118.068C400.891 117.951 401.148 117.787 401.379 117.576C401.613 117.365 401.818 117.117 401.994 116.832C402.174 116.547 402.324 116.234 402.445 115.895C402.566 115.551 402.658 115.189 402.721 114.811C402.783 114.432 402.814 114.045 402.814 113.65C402.814 112.869 402.629 112.262 402.258 111.828C401.891 111.395 401.381 111.178 400.729 111.178C400.393 111.178 400.08 111.234 399.791 111.348C399.502 111.457 399.238 111.615 399 111.822C398.762 112.025 398.551 112.268 398.367 112.549C398.188 112.83 398.035 113.143 397.91 113.486C397.785 113.826 397.689 114.188 397.623 114.57C397.561 114.953 397.529 115.35 397.529 115.76C397.529 116.275 397.613 116.719 397.781 117.09C397.949 117.461 398.193 117.746 398.514 117.945C398.834 118.145 399.221 118.244 399.674 118.244Z" fill="black"/>
</g>
</g>
<g id="midFrontGroup">
<path id="midFolderFront" d="M213.057 94.2238C211.952 97.9096 204.673 123.71 202.369 132.925C201.447 136.611 202.737 143.245 209.372 143.614C216.006 143.982 280.876 144.203 283.825 143.614C286.774 143.024 291.279 139.928 292.302 136.242C295.988 122.973 303.286 97.9096 302.991 93.4867C302.696 89.0637 297.831 86.4996 294.883 86.4836C272.276 86.3608 227.064 86.1887 222.641 86.4836C218.218 86.7785 214.163 90.538 213.057 94.2238Z" fill="#FED9A2" stroke="black" stroke-width="2"/>
<path id="MODULE" d="M220.656 123L223.07 111.578H224.938L226.125 121.055H226.188L231.406 111.578H233.43L231.055 123H229.727L231.227 115.906C231.32 115.479 231.411 115.078 231.5 114.703C231.589 114.328 231.669 113.987 231.742 113.68C231.82 113.367 231.891 113.102 231.953 112.883H231.922L226.297 123H225.258L223.961 112.891H223.898C223.878 113.104 223.841 113.378 223.789 113.711C223.742 114.039 223.685 114.391 223.617 114.766C223.555 115.135 223.487 115.492 223.414 115.836L221.906 123H220.656ZM238.773 123.156C237.857 123.156 237.083 122.974 236.453 122.609C235.828 122.245 235.357 121.729 235.039 121.062C234.721 120.396 234.562 119.612 234.562 118.711C234.562 118.06 234.62 117.43 234.734 116.82C234.854 116.211 235.026 115.635 235.25 115.094C235.474 114.547 235.75 114.049 236.078 113.602C236.411 113.148 236.792 112.758 237.219 112.43C237.646 112.102 238.117 111.849 238.633 111.672C239.154 111.49 239.716 111.398 240.32 111.398C241.602 111.398 242.602 111.797 243.32 112.594C244.044 113.385 244.406 114.487 244.406 115.898C244.406 116.529 244.354 117.146 244.25 117.75C244.146 118.349 243.99 118.919 243.781 119.461C243.573 120.003 243.312 120.5 243 120.953C242.688 121.401 242.323 121.789 241.906 122.117C241.49 122.445 241.021 122.701 240.5 122.883C239.979 123.065 239.404 123.156 238.773 123.156ZM238.82 121.992C239.268 121.992 239.682 121.914 240.062 121.758C240.443 121.602 240.786 121.383 241.094 121.102C241.406 120.82 241.68 120.49 241.914 120.109C242.154 119.729 242.354 119.312 242.516 118.859C242.677 118.401 242.799 117.919 242.883 117.414C242.966 116.909 243.008 116.393 243.008 115.867C243.008 114.826 242.76 114.016 242.266 113.438C241.776 112.859 241.096 112.57 240.227 112.57C239.779 112.57 239.362 112.646 238.977 112.797C238.591 112.943 238.24 113.154 237.922 113.43C237.604 113.701 237.323 114.023 237.078 114.398C236.839 114.773 236.635 115.19 236.469 115.648C236.302 116.102 236.174 116.583 236.086 117.094C236.003 117.604 235.961 118.133 235.961 118.68C235.961 119.367 236.073 119.958 236.297 120.453C236.521 120.948 236.846 121.328 237.273 121.594C237.701 121.859 238.216 121.992 238.82 121.992ZM245.594 123L248.008 111.578H250.672C252.057 111.578 253.141 111.953 253.922 112.703C254.708 113.448 255.102 114.594 255.102 116.141C255.102 116.922 255.008 117.659 254.82 118.352C254.633 119.044 254.354 119.674 253.984 120.242C253.615 120.81 253.159 121.299 252.617 121.711C252.076 122.122 251.448 122.44 250.734 122.664C250.021 122.888 249.227 123 248.352 123H245.594ZM247.148 121.859H248.43C249.117 121.859 249.74 121.766 250.297 121.578C250.854 121.385 251.344 121.115 251.766 120.766C252.193 120.417 252.549 120.005 252.836 119.531C253.128 119.052 253.346 118.526 253.492 117.953C253.638 117.375 253.711 116.766 253.711 116.125C253.711 114.927 253.419 114.06 252.836 113.523C252.258 112.982 251.479 112.711 250.5 112.711H249.094L247.148 121.859ZM260.406 123.156C259.625 123.156 258.974 123.034 258.453 122.789C257.932 122.544 257.542 122.188 257.281 121.719C257.021 121.25 256.891 120.677 256.891 120C256.891 119.818 256.906 119.599 256.938 119.344C256.969 119.089 257.013 118.815 257.07 118.523L258.555 111.578H259.875L258.383 118.594C258.326 118.833 258.281 119.083 258.25 119.344C258.219 119.604 258.203 119.818 258.203 119.984C258.203 120.615 258.396 121.107 258.781 121.461C259.167 121.815 259.734 121.992 260.484 121.992C261.125 121.992 261.659 121.88 262.086 121.656C262.513 121.427 262.857 121.091 263.117 120.648C263.383 120.201 263.586 119.646 263.727 118.984L265.312 111.578H266.625L265.031 119.094C264.854 119.943 264.578 120.672 264.203 121.281C263.828 121.885 263.331 122.349 262.711 122.672C262.091 122.995 261.323 123.156 260.406 123.156ZM267.141 123L269.555 111.578H270.867L268.695 121.812H273.172L272.922 123H267.141ZM274.812 123L277.227 111.578H283.016L282.766 112.75H278.297L277.508 116.445H281.695L281.469 117.602H277.273L276.367 121.828H280.844L280.594 123H274.812Z" fill="black"/>
</g>
</g>
<g id="bigFrontGroup">
<path id="bigFolderFront" d="M43 87.0001C41.5 92.0001 31.6255 127 28.5 139.5C27.2497 144.5 29 153.5 38 154C47.0001 154.5 135 154.8 139 154C143 153.2 149.111 149 150.5 144C155.5 126 165.4 92.0001 165 86.0002C164.6 80.0002 158 76.5219 154 76.5002C123.333 76.3335 62 76.1002 56 76.5002C50 76.9002 44.5 82.0001 43 87.0001Z" fill="#FED9A2" stroke="black" stroke-width="2"/>
<path id="PROJECT" d="M56.8398 125L59.8574 110.723H63.0703C64.0794 110.723 64.8965 110.876 65.5215 111.182C66.1465 111.488 66.6022 111.917 66.8887 112.471C67.1751 113.024 67.3184 113.675 67.3184 114.424C67.3184 115.212 67.1849 115.911 66.918 116.523C66.6576 117.135 66.2669 117.653 65.7461 118.076C65.2253 118.499 64.5775 118.822 63.8027 119.043C63.0345 119.258 62.1426 119.365 61.127 119.365H59.6719L58.4805 125H56.8398ZM59.9746 117.969H61.3809C62.2663 117.969 63.0247 117.842 63.6562 117.588C64.2943 117.334 64.7826 116.95 65.1211 116.436C65.4661 115.915 65.6387 115.26 65.6387 114.473C65.6387 113.652 65.4076 113.06 64.9453 112.695C64.4831 112.324 63.7799 112.139 62.8359 112.139H61.2148L59.9746 117.969ZM68.168 125L71.1855 110.723H74.3105C75.7689 110.723 76.8626 111.025 77.5918 111.631C78.321 112.23 78.6855 113.118 78.6855 114.297C78.6855 115 78.5651 115.641 78.3242 116.221C78.0833 116.794 77.696 117.288 77.1621 117.705C76.6348 118.122 75.9414 118.447 75.082 118.682L77.4258 125H75.6289L73.5586 119.043H71.0684L69.8086 125H68.168ZM71.3613 117.637H73.0898C73.7474 117.637 74.3203 117.562 74.8086 117.412C75.2969 117.256 75.7005 117.038 76.0195 116.758C76.3451 116.478 76.5859 116.139 76.7422 115.742C76.9049 115.345 76.9863 114.902 76.9863 114.414C76.9863 113.587 76.7487 113.005 76.2734 112.666C75.8047 112.327 75.0951 112.158 74.1445 112.158H72.543L71.3613 117.637ZM85.502 125.195C84.3561 125.195 83.3893 124.967 82.6016 124.512C81.8203 124.056 81.2311 123.411 80.834 122.578C80.4368 121.745 80.2383 120.765 80.2383 119.639C80.2383 118.825 80.3099 118.037 80.4531 117.275C80.6029 116.514 80.8177 115.794 81.0977 115.117C81.3776 114.434 81.7227 113.812 82.1328 113.252C82.5495 112.686 83.0247 112.197 83.5586 111.787C84.0924 111.377 84.6816 111.061 85.3262 110.84C85.9772 110.612 86.6803 110.498 87.4355 110.498C89.0371 110.498 90.2871 110.996 91.1855 111.992C92.0905 112.982 92.543 114.359 92.543 116.123C92.543 116.911 92.4779 117.682 92.3477 118.438C92.2174 119.186 92.0221 119.899 91.7617 120.576C91.5013 121.253 91.1758 121.875 90.7852 122.441C90.3945 123.001 89.9388 123.486 89.418 123.896C88.8971 124.307 88.3112 124.626 87.6602 124.854C87.0091 125.081 86.2897 125.195 85.502 125.195ZM85.5605 123.74C86.1204 123.74 86.638 123.643 87.1133 123.447C87.5885 123.252 88.0182 122.979 88.4023 122.627C88.793 122.275 89.1348 121.862 89.4277 121.387C89.7272 120.911 89.9779 120.391 90.1797 119.824C90.3815 119.251 90.5345 118.649 90.6387 118.018C90.7428 117.386 90.7949 116.742 90.7949 116.084C90.7949 114.782 90.4857 113.77 89.8672 113.047C89.2552 112.324 88.4056 111.963 87.3184 111.963C86.7585 111.963 86.2376 112.057 85.7559 112.246C85.2741 112.428 84.8346 112.692 84.4375 113.037C84.0404 113.376 83.6888 113.779 83.3828 114.248C83.0833 114.717 82.8294 115.238 82.6211 115.811C82.4128 116.377 82.2533 116.979 82.1426 117.617C82.0384 118.255 81.9863 118.916 81.9863 119.6C81.9863 120.459 82.1263 121.198 82.4062 121.816C82.6862 122.435 83.0931 122.91 83.627 123.242C84.1608 123.574 84.8053 123.74 85.5605 123.74ZM91.5664 128.76C91.2539 128.76 90.9609 128.737 90.6875 128.691C90.4076 128.646 90.1927 128.59 90.043 128.525L90.0918 127.1C90.3001 127.158 90.528 127.204 90.7754 127.236C91.0163 127.275 91.2702 127.295 91.5371 127.295C91.9538 127.295 92.3314 127.21 92.6699 127.041C93.002 126.872 93.2884 126.608 93.5293 126.25C93.7702 125.892 93.9492 125.43 94.0664 124.863L97.0742 110.723H98.7246L95.6875 125.049C95.4987 125.928 95.2155 126.641 94.8379 127.188C94.4603 127.734 93.9948 128.132 93.4414 128.379C92.8945 128.633 92.2695 128.76 91.5664 128.76ZM99.3984 125L102.416 110.723H109.652L109.34 112.188H103.754L102.768 116.807H108.002L107.719 118.252H102.475L101.342 123.535H106.938L106.625 125H99.3984ZM115.414 125.195C114.353 125.195 113.445 124.974 112.689 124.531C111.941 124.089 111.365 123.46 110.961 122.646C110.557 121.826 110.355 120.853 110.355 119.727C110.355 118.841 110.46 117.959 110.668 117.08C110.876 116.195 111.186 115.361 111.596 114.58C112.012 113.792 112.53 113.096 113.148 112.49C113.767 111.878 114.486 111.396 115.307 111.045C116.133 110.693 117.058 110.518 118.08 110.518C118.757 110.518 119.376 110.583 119.936 110.713C120.502 110.843 121.033 111.042 121.527 111.309L120.873 112.686C120.495 112.484 120.079 112.318 119.623 112.188C119.174 112.051 118.66 111.982 118.08 111.982C117.279 111.982 116.56 112.129 115.922 112.422C115.284 112.708 114.724 113.105 114.242 113.613C113.767 114.115 113.37 114.694 113.051 115.352C112.738 116.009 112.501 116.709 112.338 117.451C112.182 118.187 112.104 118.932 112.104 119.688C112.104 120.938 112.419 121.927 113.051 122.656C113.689 123.379 114.571 123.74 115.697 123.74C116.264 123.74 116.811 123.685 117.338 123.574C117.872 123.464 118.389 123.324 118.891 123.154V124.6C118.383 124.782 117.859 124.925 117.318 125.029C116.785 125.14 116.15 125.195 115.414 125.195ZM123.725 125L126.439 112.188H122.455L122.768 110.723H132.396L132.104 112.188H128.119L125.395 125H123.725Z" fill="black"/>
</g>
</g>
</g>
</svg>
