<svg width="514" height="238" viewBox="0 0 514 238" fill="none" xmlns="http://www.w3.org/2000/svg">
<g id="Frame 9">
<path id="bigFolderBack" d="M57.9999 76C51.9999 76 43 76 43 89.9999V171.5H165.5V119C165.5 98.9999 155.5 94.3333 150.5 94.4999H80.5V87.5C80.5 84.0459 76.5 76 71 76H58H57.9999Z" fill="#FBC379" stroke="black" stroke-width="2"/>
<g id="bigFrontGroup">
<path id="bigFolderFront" d="M58 117C56.5 122 46.6255 157 43.5 169.5C42.2497 174.5 44 183.5 53 184C62.0001 184.5 150 184.8 154 184C158 183.2 164.111 179 165.5 174C170.5 156 180.4 122 180 116C179.6 110 173 106.522 169 106.5C138.333 106.333 77 106.1 71 106.5C65 106.9 59.5 112 58 117Z" fill="#FED9A2" stroke="black" stroke-width="2"/>
<path id="PROJECT" d="M71.8398 155L74.8574 140.723H78.0703C79.0794 140.723 79.8965 140.876 80.5215 141.182C81.1465 141.488 81.6022 141.917 81.8887 142.471C82.1751 143.024 82.3184 143.675 82.3184 144.424C82.3184 145.212 82.1849 145.911 81.918 146.523C81.6576 147.135 81.2669 147.653 80.7461 148.076C80.2253 148.499 79.5775 148.822 78.8027 149.043C78.0345 149.258 77.1426 149.365 76.127 149.365H74.6719L73.4805 155H71.8398ZM74.9746 147.969H76.3809C77.2663 147.969 78.0247 147.842 78.6562 147.588C79.2943 147.334 79.7826 146.95 80.1211 146.436C80.4661 145.915 80.6387 145.26 80.6387 144.473C80.6387 143.652 80.4076 143.06 79.9453 142.695C79.4831 142.324 78.7799 142.139 77.8359 142.139H76.2148L74.9746 147.969ZM83.168 155L86.1855 140.723H89.3105C90.7689 140.723 91.8626 141.025 92.5918 141.631C93.321 142.23 93.6855 143.118 93.6855 144.297C93.6855 145 93.5651 145.641 93.3242 146.221C93.0833 146.794 92.696 147.288 92.1621 147.705C91.6348 148.122 90.9414 148.447 90.082 148.682L92.4258 155H90.6289L88.5586 149.043H86.0684L84.8086 155H83.168ZM86.3613 147.637H88.0898C88.7474 147.637 89.3203 147.562 89.8086 147.412C90.2969 147.256 90.7005 147.038 91.0195 146.758C91.3451 146.478 91.5859 146.139 91.7422 145.742C91.9049 145.345 91.9863 144.902 91.9863 144.414C91.9863 143.587 91.7487 143.005 91.2734 142.666C90.8047 142.327 90.0951 142.158 89.1445 142.158H87.543L86.3613 147.637ZM100.502 155.195C99.3561 155.195 98.3893 154.967 97.6016 154.512C96.8203 154.056 96.2311 153.411 95.834 152.578C95.4368 151.745 95.2383 150.765 95.2383 149.639C95.2383 148.825 95.3099 148.037 95.4531 147.275C95.6029 146.514 95.8177 145.794 96.0977 145.117C96.3776 144.434 96.7227 143.812 97.1328 143.252C97.5495 142.686 98.0247 142.197 98.5586 141.787C99.0924 141.377 99.6816 141.061 100.326 140.84C100.977 140.612 101.68 140.498 102.436 140.498C104.037 140.498 105.287 140.996 106.186 141.992C107.09 142.982 107.543 144.359 107.543 146.123C107.543 146.911 107.478 147.682 107.348 148.438C107.217 149.186 107.022 149.899 106.762 150.576C106.501 151.253 106.176 151.875 105.785 152.441C105.395 153.001 104.939 153.486 104.418 153.896C103.897 154.307 103.311 154.626 102.66 154.854C102.009 155.081 101.29 155.195 100.502 155.195ZM100.561 153.74C101.12 153.74 101.638 153.643 102.113 153.447C102.589 153.252 103.018 152.979 103.402 152.627C103.793 152.275 104.135 151.862 104.428 151.387C104.727 150.911 104.978 150.391 105.18 149.824C105.382 149.251 105.535 148.649 105.639 148.018C105.743 147.386 105.795 146.742 105.795 146.084C105.795 144.782 105.486 143.77 104.867 143.047C104.255 142.324 103.406 141.963 102.318 141.963C101.758 141.963 101.238 142.057 100.756 142.246C100.274 142.428 99.8346 142.692 99.4375 143.037C99.0404 143.376 98.6888 143.779 98.3828 144.248C98.0833 144.717 97.8294 145.238 97.6211 145.811C97.4128 146.377 97.2533 146.979 97.1426 147.617C97.0384 148.255 96.9863 148.916 96.9863 149.6C96.9863 150.459 97.1263 151.198 97.4062 151.816C97.6862 152.435 98.0931 152.91 98.627 153.242C99.1608 153.574 99.8053 153.74 100.561 153.74ZM106.566 158.76C106.254 158.76 105.961 158.737 105.688 158.691C105.408 158.646 105.193 158.59 105.043 158.525L105.092 157.1C105.3 157.158 105.528 157.204 105.775 157.236C106.016 157.275 106.27 157.295 106.537 157.295C106.954 157.295 107.331 157.21 107.67 157.041C108.002 156.872 108.288 156.608 108.529 156.25C108.77 155.892 108.949 155.43 109.066 154.863L112.074 140.723H113.725L110.688 155.049C110.499 155.928 110.215 156.641 109.838 157.188C109.46 157.734 108.995 158.132 108.441 158.379C107.895 158.633 107.27 158.76 106.566 158.76ZM114.398 155L117.416 140.723H124.652L124.34 142.188H118.754L117.768 146.807H123.002L122.719 148.252H117.475L116.342 153.535H121.938L121.625 155H114.398ZM130.414 155.195C129.353 155.195 128.445 154.974 127.689 154.531C126.941 154.089 126.365 153.46 125.961 152.646C125.557 151.826 125.355 150.853 125.355 149.727C125.355 148.841 125.46 147.959 125.668 147.08C125.876 146.195 126.186 145.361 126.596 144.58C127.012 143.792 127.53 143.096 128.148 142.49C128.767 141.878 129.486 141.396 130.307 141.045C131.133 140.693 132.058 140.518 133.08 140.518C133.757 140.518 134.376 140.583 134.936 140.713C135.502 140.843 136.033 141.042 136.527 141.309L135.873 142.686C135.495 142.484 135.079 142.318 134.623 142.188C134.174 142.051 133.66 141.982 133.08 141.982C132.279 141.982 131.56 142.129 130.922 142.422C130.284 142.708 129.724 143.105 129.242 143.613C128.767 144.115 128.37 144.694 128.051 145.352C127.738 146.009 127.501 146.709 127.338 147.451C127.182 148.187 127.104 148.932 127.104 149.688C127.104 150.938 127.419 151.927 128.051 152.656C128.689 153.379 129.571 153.74 130.697 153.74C131.264 153.74 131.811 153.685 132.338 153.574C132.872 153.464 133.389 153.324 133.891 153.154V154.6C133.383 154.782 132.859 154.925 132.318 155.029C131.785 155.14 131.15 155.195 130.414 155.195ZM138.725 155L141.439 142.188H137.455L137.768 140.723H147.396L147.104 142.188H143.119L140.395 155H138.725Z" fill="black"/>
</g>
<path id="midFolderBack" d="M242.02 106C237.612 106 231 106 231 116.262V176H321V137.518C321 122.859 313.653 119.438 309.98 119.56H258.551V114.429C258.551 111.898 255.612 106 251.571 106H242.02H242.02Z" fill="#FBC379" stroke="black" stroke-width="2"/>
<g id="midFrontGroup">
<path id="midFolderFront" d="M242.057 136.224C240.952 139.91 233.673 165.71 231.369 174.925C230.447 178.611 231.737 185.245 238.372 185.614C245.006 185.982 309.876 186.203 312.825 185.614C315.774 185.024 320.279 181.928 321.302 178.242C324.988 164.973 332.286 139.91 331.991 135.487C331.696 131.064 326.831 128.5 323.883 128.484C301.276 128.361 256.064 128.189 251.641 128.484C247.218 128.778 243.163 132.538 242.057 136.224Z" fill="#FED9A2" stroke="black" stroke-width="2"/>
<path id="MODULE" d="M249.656 165L252.07 153.578H253.938L255.125 163.055H255.188L260.406 153.578H262.43L260.055 165H258.727L260.227 157.906C260.32 157.479 260.411 157.078 260.5 156.703C260.589 156.328 260.669 155.987 260.742 155.68C260.82 155.367 260.891 155.102 260.953 154.883H260.922L255.297 165H254.258L252.961 154.891H252.898C252.878 155.104 252.841 155.378 252.789 155.711C252.742 156.039 252.685 156.391 252.617 156.766C252.555 157.135 252.487 157.492 252.414 157.836L250.906 165H249.656ZM267.773 165.156C266.857 165.156 266.083 164.974 265.453 164.609C264.828 164.245 264.357 163.729 264.039 163.062C263.721 162.396 263.562 161.612 263.562 160.711C263.562 160.06 263.62 159.43 263.734 158.82C263.854 158.211 264.026 157.635 264.25 157.094C264.474 156.547 264.75 156.049 265.078 155.602C265.411 155.148 265.792 154.758 266.219 154.43C266.646 154.102 267.117 153.849 267.633 153.672C268.154 153.49 268.716 153.398 269.32 153.398C270.602 153.398 271.602 153.797 272.32 154.594C273.044 155.385 273.406 156.487 273.406 157.898C273.406 158.529 273.354 159.146 273.25 159.75C273.146 160.349 272.99 160.919 272.781 161.461C272.573 162.003 272.312 162.5 272 162.953C271.688 163.401 271.323 163.789 270.906 164.117C270.49 164.445 270.021 164.701 269.5 164.883C268.979 165.065 268.404 165.156 267.773 165.156ZM267.82 163.992C268.268 163.992 268.682 163.914 269.062 163.758C269.443 163.602 269.786 163.383 270.094 163.102C270.406 162.82 270.68 162.49 270.914 162.109C271.154 161.729 271.354 161.312 271.516 160.859C271.677 160.401 271.799 159.919 271.883 159.414C271.966 158.909 272.008 158.393 272.008 157.867C272.008 156.826 271.76 156.016 271.266 155.438C270.776 154.859 270.096 154.57 269.227 154.57C268.779 154.57 268.362 154.646 267.977 154.797C267.591 154.943 267.24 155.154 266.922 155.43C266.604 155.701 266.323 156.023 266.078 156.398C265.839 156.773 265.635 157.19 265.469 157.648C265.302 158.102 265.174 158.583 265.086 159.094C265.003 159.604 264.961 160.133 264.961 160.68C264.961 161.367 265.073 161.958 265.297 162.453C265.521 162.948 265.846 163.328 266.273 163.594C266.701 163.859 267.216 163.992 267.82 163.992ZM274.594 165L277.008 153.578H279.672C281.057 153.578 282.141 153.953 282.922 154.703C283.708 155.448 284.102 156.594 284.102 158.141C284.102 158.922 284.008 159.659 283.82 160.352C283.633 161.044 283.354 161.674 282.984 162.242C282.615 162.81 282.159 163.299 281.617 163.711C281.076 164.122 280.448 164.44 279.734 164.664C279.021 164.888 278.227 165 277.352 165H274.594ZM276.148 163.859H277.43C278.117 163.859 278.74 163.766 279.297 163.578C279.854 163.385 280.344 163.115 280.766 162.766C281.193 162.417 281.549 162.005 281.836 161.531C282.128 161.052 282.346 160.526 282.492 159.953C282.638 159.375 282.711 158.766 282.711 158.125C282.711 156.927 282.419 156.06 281.836 155.523C281.258 154.982 280.479 154.711 279.5 154.711H278.094L276.148 163.859ZM289.406 165.156C288.625 165.156 287.974 165.034 287.453 164.789C286.932 164.544 286.542 164.188 286.281 163.719C286.021 163.25 285.891 162.677 285.891 162C285.891 161.818 285.906 161.599 285.938 161.344C285.969 161.089 286.013 160.815 286.07 160.523L287.555 153.578H288.875L287.383 160.594C287.326 160.833 287.281 161.083 287.25 161.344C287.219 161.604 287.203 161.818 287.203 161.984C287.203 162.615 287.396 163.107 287.781 163.461C288.167 163.815 288.734 163.992 289.484 163.992C290.125 163.992 290.659 163.88 291.086 163.656C291.513 163.427 291.857 163.091 292.117 162.648C292.383 162.201 292.586 161.646 292.727 160.984L294.312 153.578H295.625L294.031 161.094C293.854 161.943 293.578 162.672 293.203 163.281C292.828 163.885 292.331 164.349 291.711 164.672C291.091 164.995 290.323 165.156 289.406 165.156ZM296.141 165L298.555 153.578H299.867L297.695 163.812H302.172L301.922 165H296.141ZM303.812 165L306.227 153.578H312.016L311.766 154.75H307.297L306.508 158.445H310.695L310.469 159.602H306.273L305.367 163.828H309.844L309.594 165H303.812Z" fill="black"/>
</g>
<path id="smallFolderBack" d="M390.837 124C387.702 124 383 124 383 131.33V174H447V146.513C447 136.042 441.776 133.599 439.163 133.686H402.592V130.021C402.592 128.213 400.502 124 397.629 124H390.837H390.837Z" fill="#FBC379" stroke="black" stroke-width="2"/>
<g id="smallFrontGroup">
<path id="smallFolderFront" d="M390.883 145.546C390.094 148.173 384.905 166.566 383.263 173.135C382.606 175.762 383.525 180.492 388.255 180.754C392.985 181.017 439.229 181.175 441.331 180.754C443.433 180.334 446.644 178.127 447.374 175.499C450.002 166.04 455.204 148.173 454.994 145.02C454.784 141.867 451.315 140.039 449.213 140.028C433.098 139.94 400.867 139.818 397.714 140.028C394.561 140.238 391.671 142.918 390.883 145.546Z" fill="#FED9A2" stroke="black" stroke-width="2"/>
<path id="SCENARIO" d="M396.238 166.117C395.812 166.117 395.439 166.086 395.119 166.023C394.799 165.961 394.502 165.865 394.229 165.736V164.758C394.475 164.883 394.764 164.998 395.096 165.104C395.428 165.205 395.812 165.256 396.25 165.256C396.52 165.256 396.777 165.225 397.023 165.162C397.27 165.1 397.488 165.002 397.68 164.869C397.875 164.736 398.027 164.566 398.137 164.359C398.25 164.152 398.307 163.906 398.307 163.621C398.307 163.391 398.256 163.188 398.154 163.012C398.057 162.832 397.9 162.66 397.686 162.496C397.471 162.328 397.189 162.148 396.842 161.957C396.545 161.781 396.277 161.598 396.039 161.406C395.805 161.211 395.619 160.984 395.482 160.727C395.346 160.465 395.277 160.148 395.277 159.777C395.277 159.379 395.352 159.027 395.5 158.723C395.648 158.414 395.852 158.156 396.109 157.949C396.371 157.738 396.67 157.58 397.006 157.475C397.346 157.365 397.705 157.311 398.084 157.311C398.533 157.311 398.924 157.355 399.256 157.445C399.588 157.535 399.908 157.656 400.217 157.809L399.836 158.652C399.617 158.535 399.354 158.43 399.045 158.336C398.74 158.238 398.42 158.189 398.084 158.189C397.838 158.189 397.607 158.223 397.393 158.289C397.182 158.352 396.996 158.447 396.836 158.576C396.676 158.705 396.551 158.865 396.461 159.057C396.371 159.244 396.326 159.463 396.326 159.713C396.326 159.967 396.373 160.178 396.467 160.346C396.564 160.514 396.705 160.666 396.889 160.803C397.076 160.939 397.307 161.088 397.58 161.248C397.928 161.451 398.234 161.654 398.5 161.857C398.766 162.057 398.973 162.289 399.121 162.555C399.27 162.816 399.344 163.146 399.344 163.545C399.344 163.975 399.268 164.352 399.115 164.676C398.967 164.996 398.754 165.264 398.477 165.479C398.199 165.689 397.871 165.85 397.492 165.959C397.113 166.064 396.695 166.117 396.238 166.117ZM403.961 166.117C403.324 166.117 402.779 165.984 402.326 165.719C401.877 165.453 401.531 165.076 401.289 164.588C401.047 164.096 400.926 163.512 400.926 162.836C400.926 162.305 400.988 161.775 401.113 161.248C401.238 160.717 401.424 160.217 401.67 159.748C401.92 159.275 402.23 158.857 402.602 158.494C402.973 158.127 403.404 157.838 403.896 157.627C404.393 157.416 404.947 157.311 405.561 157.311C405.967 157.311 406.338 157.35 406.674 157.428C407.014 157.506 407.332 157.625 407.629 157.785L407.236 158.611C407.01 158.49 406.76 158.391 406.486 158.312C406.217 158.23 405.908 158.189 405.561 158.189C405.08 158.189 404.648 158.277 404.266 158.453C403.883 158.625 403.547 158.863 403.258 159.168C402.973 159.469 402.734 159.816 402.543 160.211C402.355 160.605 402.213 161.025 402.115 161.471C402.021 161.912 401.975 162.359 401.975 162.812C401.975 163.562 402.164 164.156 402.543 164.594C402.926 165.027 403.455 165.244 404.131 165.244C404.471 165.244 404.799 165.211 405.115 165.145C405.436 165.078 405.746 164.994 406.047 164.893V165.76C405.742 165.869 405.428 165.955 405.104 166.018C404.783 166.084 404.402 166.117 403.961 166.117ZM407.605 166L409.416 157.434H413.758L413.57 158.312H410.219L409.627 161.084H412.768L412.598 161.951H409.451L408.771 165.121H412.129L411.941 166H407.605ZM413.793 166L415.604 157.434H416.646L419.359 164.605H419.389C419.416 164.41 419.451 164.184 419.494 163.926C419.537 163.664 419.586 163.393 419.641 163.111C419.695 162.826 419.75 162.555 419.805 162.297L420.848 157.434H421.785L419.975 166H418.932L416.201 158.811H416.172C416.152 158.943 416.127 159.102 416.096 159.285C416.068 159.469 416.035 159.668 415.996 159.883C415.961 160.098 415.922 160.318 415.879 160.545C415.836 160.768 415.791 160.984 415.744 161.195L414.73 166H413.793ZM421.076 166L425.77 157.434H426.807L427.891 166H426.912L426.572 163.27H423.613L422.16 166H421.076ZM424.088 162.385H426.473L426.244 160.387C426.217 160.098 426.188 159.781 426.156 159.438C426.125 159.09 426.105 158.779 426.098 158.506H426.062C425.938 158.803 425.795 159.115 425.635 159.443C425.479 159.768 425.312 160.096 425.137 160.428L424.088 162.385ZM428.98 166L430.791 157.434H432.666C433.541 157.434 434.197 157.615 434.635 157.979C435.072 158.338 435.291 158.871 435.291 159.578C435.291 160 435.219 160.385 435.074 160.732C434.93 161.076 434.697 161.373 434.377 161.623C434.061 161.873 433.645 162.068 433.129 162.209L434.535 166H433.457L432.215 162.426H430.721L429.965 166H428.98ZM430.896 161.582H431.934C432.328 161.582 432.672 161.537 432.965 161.447C433.258 161.354 433.5 161.223 433.691 161.055C433.887 160.887 434.031 160.684 434.125 160.445C434.223 160.207 434.271 159.941 434.271 159.648C434.271 159.152 434.129 158.803 433.844 158.6C433.562 158.396 433.137 158.295 432.566 158.295H431.605L430.896 161.582ZM435.848 166L437.67 157.434H438.643L436.82 166H435.848ZM442.639 166.117C441.951 166.117 441.371 165.98 440.898 165.707C440.43 165.434 440.076 165.047 439.838 164.547C439.6 164.047 439.48 163.459 439.48 162.783C439.48 162.295 439.523 161.822 439.609 161.365C439.699 160.908 439.828 160.477 439.996 160.07C440.164 159.66 440.371 159.287 440.617 158.951C440.867 158.611 441.152 158.318 441.473 158.072C441.793 157.826 442.146 157.637 442.533 157.504C442.924 157.367 443.346 157.299 443.799 157.299C444.76 157.299 445.51 157.598 446.049 158.195C446.592 158.789 446.863 159.615 446.863 160.674C446.863 161.146 446.824 161.609 446.746 162.062C446.668 162.512 446.551 162.939 446.395 163.346C446.238 163.752 446.043 164.125 445.809 164.465C445.574 164.801 445.301 165.092 444.988 165.338C444.676 165.584 444.324 165.775 443.934 165.912C443.543 166.049 443.111 166.117 442.639 166.117ZM442.674 165.244C443.01 165.244 443.32 165.186 443.605 165.068C443.891 164.951 444.148 164.787 444.379 164.576C444.613 164.365 444.818 164.117 444.994 163.832C445.174 163.547 445.324 163.234 445.445 162.895C445.566 162.551 445.658 162.189 445.721 161.811C445.783 161.432 445.814 161.045 445.814 160.65C445.814 159.869 445.629 159.262 445.258 158.828C444.891 158.395 444.381 158.178 443.729 158.178C443.393 158.178 443.08 158.234 442.791 158.348C442.502 158.457 442.238 158.615 442 158.822C441.762 159.025 441.551 159.268 441.367 159.549C441.188 159.83 441.035 160.143 440.91 160.486C440.785 160.826 440.689 161.188 440.623 161.57C440.561 161.953 440.529 162.35 440.529 162.76C440.529 163.275 440.613 163.719 440.781 164.09C440.949 164.461 441.193 164.746 441.514 164.945C441.834 165.145 442.221 165.244 442.674 165.244Z" fill="black"/>
</g>
</g>
</svg>
