<svg width="432" height="141" viewBox="0 0 432 141" fill="none" xmlns="http://www.w3.org/2000/svg">
<g id="Frame 10">
<g id="bigFolder">
<path id="bigFolderBack" d="M38.9999 16C32.9999 16 24 16 24 29.9999V111.5H146.5V58.9999C146.5 38.9999 136.5 34.3333 131.5 34.4999H61.5V27.5C61.5 24.0459 57.5 16 52 16H39H38.9999Z" fill="#FBC379" stroke="black" stroke-width="2"/>
<g id="midFolder">
<path id="midFolderBack" d="M209.02 34C204.612 34 198 34 198 44.2618V104H288V65.5183C288 50.8586 280.653 47.438 276.98 47.5602H225.551V42.4293C225.551 39.8975 222.612 34 218.571 34H209.02H209.02Z" fill="#FBC379" stroke="black" stroke-width="2"/>
<g id="smallFolder">
<path id="smallFolderBack" d="M343.837 47C340.702 47 336 47 336 54.3298V97H400V69.5131C400 59.0418 394.776 56.5986 392.163 56.6858H355.592V53.0209C355.592 51.2125 353.502 47 350.629 47H343.837H343.837Z" fill="#FBC379" stroke="black" stroke-width="2"/>
<g id="smallFrontGroup">
<path id="smallFolderFront" d="M343.883 68.5457C343.094 71.1732 337.905 89.5658 336.263 96.1346C335.606 98.762 336.525 103.492 341.255 103.754C345.985 104.017 392.229 104.175 394.331 103.754C396.433 103.334 399.644 101.127 400.374 98.4993C403.002 89.0403 408.204 71.1732 407.994 68.0202C407.784 64.8672 404.315 63.0394 402.213 63.0279C386.098 62.9403 353.867 62.8177 350.714 63.0279C347.561 63.2381 344.671 65.9182 343.883 68.5457Z" fill="#FED9A2" stroke="black" stroke-width="2"/>
<path id="SCENARIO" d="M349.238 89.1172C348.812 89.1172 348.439 89.0859 348.119 89.0234C347.799 88.9609 347.502 88.8652 347.229 88.7363V87.7578C347.475 87.8828 347.764 87.998 348.096 88.1035C348.428 88.2051 348.812 88.2559 349.25 88.2559C349.52 88.2559 349.777 88.2246 350.023 88.1621C350.27 88.0996 350.488 88.002 350.68 87.8691C350.875 87.7363 351.027 87.5664 351.137 87.3594C351.25 87.1523 351.307 86.9062 351.307 86.6211C351.307 86.3906 351.256 86.1875 351.154 86.0117C351.057 85.832 350.9 85.6602 350.686 85.4961C350.471 85.3281 350.189 85.1484 349.842 84.957C349.545 84.7812 349.277 84.5977 349.039 84.4062C348.805 84.2109 348.619 83.9844 348.482 83.7266C348.346 83.4648 348.277 83.1484 348.277 82.7773C348.277 82.3789 348.352 82.0273 348.5 81.7227C348.648 81.4141 348.852 81.1562 349.109 80.9492C349.371 80.7383 349.67 80.5801 350.006 80.4746C350.346 80.3652 350.705 80.3105 351.084 80.3105C351.533 80.3105 351.924 80.3555 352.256 80.4453C352.588 80.5352 352.908 80.6562 353.217 80.8086L352.836 81.6523C352.617 81.5352 352.354 81.4297 352.045 81.3359C351.74 81.2383 351.42 81.1895 351.084 81.1895C350.838 81.1895 350.607 81.2227 350.393 81.2891C350.182 81.3516 349.996 81.4473 349.836 81.5762C349.676 81.7051 349.551 81.8652 349.461 82.0566C349.371 82.2441 349.326 82.4629 349.326 82.7129C349.326 82.9668 349.373 83.1777 349.467 83.3457C349.564 83.5137 349.705 83.666 349.889 83.8027C350.076 83.9395 350.307 84.0879 350.58 84.248C350.928 84.4512 351.234 84.6543 351.5 84.8574C351.766 85.0566 351.973 85.2891 352.121 85.5547C352.27 85.8164 352.344 86.1465 352.344 86.5449C352.344 86.9746 352.268 87.3516 352.115 87.6758C351.967 87.9961 351.754 88.2637 351.477 88.4785C351.199 88.6895 350.871 88.8496 350.492 88.959C350.113 89.0645 349.695 89.1172 349.238 89.1172ZM356.961 89.1172C356.324 89.1172 355.779 88.9844 355.326 88.7188C354.877 88.4531 354.531 88.0762 354.289 87.5879C354.047 87.0957 353.926 86.5117 353.926 85.8359C353.926 85.3047 353.988 84.7754 354.113 84.248C354.238 83.7168 354.424 83.2168 354.67 82.748C354.92 82.2754 355.23 81.8574 355.602 81.4941C355.973 81.127 356.404 80.8379 356.896 80.627C357.393 80.416 357.947 80.3105 358.561 80.3105C358.967 80.3105 359.338 80.3496 359.674 80.4277C360.014 80.5059 360.332 80.625 360.629 80.7852L360.236 81.6113C360.01 81.4902 359.76 81.3906 359.486 81.3125C359.217 81.2305 358.908 81.1895 358.561 81.1895C358.08 81.1895 357.648 81.2773 357.266 81.4531C356.883 81.625 356.547 81.8633 356.258 82.168C355.973 82.4688 355.734 82.8164 355.543 83.2109C355.355 83.6055 355.213 84.0254 355.115 84.4707C355.021 84.9121 354.975 85.3594 354.975 85.8125C354.975 86.5625 355.164 87.1562 355.543 87.5938C355.926 88.0273 356.455 88.2441 357.131 88.2441C357.471 88.2441 357.799 88.2109 358.115 88.1445C358.436 88.0781 358.746 87.9941 359.047 87.8926V88.7598C358.742 88.8691 358.428 88.9551 358.104 89.0176C357.783 89.084 357.402 89.1172 356.961 89.1172ZM360.605 89L362.416 80.4336H366.758L366.57 81.3125H363.219L362.627 84.084H365.768L365.598 84.9512H362.451L361.771 88.1211H365.129L364.941 89H360.605ZM366.793 89L368.604 80.4336H369.646L372.359 87.6055H372.389C372.416 87.4102 372.451 87.1836 372.494 86.9258C372.537 86.6641 372.586 86.3926 372.641 86.1113C372.695 85.8262 372.75 85.5547 372.805 85.2969L373.848 80.4336H374.785L372.975 89H371.932L369.201 81.8105H369.172C369.152 81.9434 369.127 82.1016 369.096 82.2852C369.068 82.4688 369.035 82.668 368.996 82.8828C368.961 83.0977 368.922 83.3184 368.879 83.5449C368.836 83.7676 368.791 83.9844 368.744 84.1953L367.73 89H366.793ZM374.076 89L378.77 80.4336H379.807L380.891 89H379.912L379.572 86.2695H376.613L375.16 89H374.076ZM377.088 85.3848H379.473L379.244 83.3867C379.217 83.0977 379.188 82.7812 379.156 82.4375C379.125 82.0898 379.105 81.7793 379.098 81.5059H379.062C378.938 81.8027 378.795 82.1152 378.635 82.4434C378.479 82.7676 378.312 83.0957 378.137 83.4277L377.088 85.3848ZM381.98 89L383.791 80.4336H385.666C386.541 80.4336 387.197 80.6152 387.635 80.9785C388.072 81.3379 388.291 81.8711 388.291 82.5781C388.291 83 388.219 83.3848 388.074 83.7324C387.93 84.0762 387.697 84.373 387.377 84.623C387.061 84.873 386.645 85.0684 386.129 85.209L387.535 89H386.457L385.215 85.4258H383.721L382.965 89H381.98ZM383.896 84.582H384.934C385.328 84.582 385.672 84.5371 385.965 84.4473C386.258 84.3535 386.5 84.2227 386.691 84.0547C386.887 83.8867 387.031 83.6836 387.125 83.4453C387.223 83.207 387.271 82.9414 387.271 82.6484C387.271 82.1523 387.129 81.8027 386.844 81.5996C386.562 81.3965 386.137 81.2949 385.566 81.2949H384.605L383.896 84.582ZM388.848 89L390.67 80.4336H391.643L389.82 89H388.848ZM395.639 89.1172C394.951 89.1172 394.371 88.9805 393.898 88.707C393.43 88.4336 393.076 88.0469 392.838 87.5469C392.6 87.0469 392.48 86.459 392.48 85.7832C392.48 85.2949 392.523 84.8223 392.609 84.3652C392.699 83.9082 392.828 83.4766 392.996 83.0703C393.164 82.6602 393.371 82.2871 393.617 81.9512C393.867 81.6113 394.152 81.3184 394.473 81.0723C394.793 80.8262 395.146 80.6367 395.533 80.5039C395.924 80.3672 396.346 80.2988 396.799 80.2988C397.76 80.2988 398.51 80.5977 399.049 81.1953C399.592 81.7891 399.863 82.6152 399.863 83.6738C399.863 84.1465 399.824 84.6094 399.746 85.0625C399.668 85.5117 399.551 85.9395 399.395 86.3457C399.238 86.752 399.043 87.125 398.809 87.4648C398.574 87.8008 398.301 88.0918 397.988 88.3379C397.676 88.584 397.324 88.7754 396.934 88.9121C396.543 89.0488 396.111 89.1172 395.639 89.1172ZM395.674 88.2441C396.01 88.2441 396.32 88.1855 396.605 88.0684C396.891 87.9512 397.148 87.7871 397.379 87.5762C397.613 87.3652 397.818 87.1172 397.994 86.832C398.174 86.5469 398.324 86.2344 398.445 85.8945C398.566 85.5508 398.658 85.1895 398.721 84.8105C398.783 84.4316 398.814 84.0449 398.814 83.6504C398.814 82.8691 398.629 82.2617 398.258 81.8281C397.891 81.3945 397.381 81.1777 396.729 81.1777C396.393 81.1777 396.08 81.2344 395.791 81.3477C395.502 81.457 395.238 81.6152 395 81.8223C394.762 82.0254 394.551 82.2676 394.367 82.5488C394.188 82.8301 394.035 83.1426 393.91 83.4863C393.785 83.8262 393.689 84.1875 393.623 84.5703C393.561 84.9531 393.529 85.3496 393.529 85.7598C393.529 86.2754 393.613 86.7188 393.781 87.0898C393.949 87.4609 394.193 87.7461 394.514 87.9453C394.834 88.1445 395.221 88.2441 395.674 88.2441Z" fill="black"/>
</g>
</g>
<g id="midFrontGroup">
<path id="midFolderFront" d="M209.057 64.2238C207.952 67.9096 200.673 93.7103 198.369 102.925C197.447 106.611 198.737 113.245 205.372 113.614C212.006 113.982 276.876 114.203 279.825 113.614C282.774 113.024 287.279 109.928 288.302 106.242C291.988 92.9731 299.286 67.9096 298.991 63.4867C298.696 59.0637 293.831 56.4996 290.883 56.4836C268.276 56.3608 223.064 56.1887 218.641 56.4836C214.218 56.7785 210.163 60.538 209.057 64.2238Z" fill="#FED9A2" stroke="black" stroke-width="2"/>
<path id="MODULE" d="M216.656 93L219.07 81.5781H220.938L222.125 91.0547H222.188L227.406 81.5781H229.43L227.055 93H225.727L227.227 85.9062C227.32 85.4792 227.411 85.0781 227.5 84.7031C227.589 84.3281 227.669 83.987 227.742 83.6797C227.82 83.3672 227.891 83.1016 227.953 82.8828H227.922L222.297 93H221.258L219.961 82.8906H219.898C219.878 83.1042 219.841 83.3776 219.789 83.7109C219.742 84.0391 219.685 84.3906 219.617 84.7656C219.555 85.1354 219.487 85.4922 219.414 85.8359L217.906 93H216.656ZM234.773 93.1562C233.857 93.1562 233.083 92.974 232.453 92.6094C231.828 92.2448 231.357 91.7292 231.039 91.0625C230.721 90.3958 230.562 89.612 230.562 88.7109C230.562 88.0599 230.62 87.4297 230.734 86.8203C230.854 86.2109 231.026 85.6354 231.25 85.0938C231.474 84.5469 231.75 84.0495 232.078 83.6016C232.411 83.1484 232.792 82.7578 233.219 82.4297C233.646 82.1016 234.117 81.849 234.633 81.6719C235.154 81.4896 235.716 81.3984 236.32 81.3984C237.602 81.3984 238.602 81.7969 239.32 82.5938C240.044 83.3854 240.406 84.487 240.406 85.8984C240.406 86.5286 240.354 87.1458 240.25 87.75C240.146 88.349 239.99 88.9193 239.781 89.4609C239.573 90.0026 239.312 90.5 239 90.9531C238.688 91.401 238.323 91.7891 237.906 92.1172C237.49 92.4453 237.021 92.7005 236.5 92.8828C235.979 93.0651 235.404 93.1562 234.773 93.1562ZM234.82 91.9922C235.268 91.9922 235.682 91.9141 236.062 91.7578C236.443 91.6016 236.786 91.3828 237.094 91.1016C237.406 90.8203 237.68 90.4896 237.914 90.1094C238.154 89.7292 238.354 89.3125 238.516 88.8594C238.677 88.401 238.799 87.9193 238.883 87.4141C238.966 86.9089 239.008 86.3932 239.008 85.8672C239.008 84.8255 238.76 84.0156 238.266 83.4375C237.776 82.8594 237.096 82.5703 236.227 82.5703C235.779 82.5703 235.362 82.6458 234.977 82.7969C234.591 82.9427 234.24 83.1536 233.922 83.4297C233.604 83.7005 233.323 84.0234 233.078 84.3984C232.839 84.7734 232.635 85.1901 232.469 85.6484C232.302 86.1016 232.174 86.5833 232.086 87.0938C232.003 87.6042 231.961 88.1328 231.961 88.6797C231.961 89.3672 232.073 89.9583 232.297 90.4531C232.521 90.9479 232.846 91.3281 233.273 91.5938C233.701 91.8594 234.216 91.9922 234.82 91.9922ZM241.594 93L244.008 81.5781H246.672C248.057 81.5781 249.141 81.9531 249.922 82.7031C250.708 83.4479 251.102 84.5938 251.102 86.1406C251.102 86.9219 251.008 87.6589 250.82 88.3516C250.633 89.0443 250.354 89.6745 249.984 90.2422C249.615 90.8099 249.159 91.2995 248.617 91.7109C248.076 92.1224 247.448 92.4401 246.734 92.6641C246.021 92.888 245.227 93 244.352 93H241.594ZM243.148 91.8594H244.43C245.117 91.8594 245.74 91.7656 246.297 91.5781C246.854 91.3854 247.344 91.1146 247.766 90.7656C248.193 90.4167 248.549 90.0052 248.836 89.5312C249.128 89.0521 249.346 88.526 249.492 87.9531C249.638 87.375 249.711 86.7656 249.711 86.125C249.711 84.9271 249.419 84.0599 248.836 83.5234C248.258 82.9818 247.479 82.7109 246.5 82.7109H245.094L243.148 91.8594ZM256.406 93.1562C255.625 93.1562 254.974 93.0339 254.453 92.7891C253.932 92.5443 253.542 92.1875 253.281 91.7188C253.021 91.25 252.891 90.6771 252.891 90C252.891 89.8177 252.906 89.599 252.938 89.3438C252.969 89.0885 253.013 88.8151 253.07 88.5234L254.555 81.5781H255.875L254.383 88.5938C254.326 88.8333 254.281 89.0833 254.25 89.3438C254.219 89.6042 254.203 89.8177 254.203 89.9844C254.203 90.6146 254.396 91.1068 254.781 91.4609C255.167 91.8151 255.734 91.9922 256.484 91.9922C257.125 91.9922 257.659 91.8802 258.086 91.6562C258.513 91.4271 258.857 91.0911 259.117 90.6484C259.383 90.2005 259.586 89.6458 259.727 88.9844L261.312 81.5781H262.625L261.031 89.0938C260.854 89.9427 260.578 90.6719 260.203 91.2812C259.828 91.8854 259.331 92.349 258.711 92.6719C258.091 92.9948 257.323 93.1562 256.406 93.1562ZM263.141 93L265.555 81.5781H266.867L264.695 91.8125H269.172L268.922 93H263.141ZM270.812 93L273.227 81.5781H279.016L278.766 82.75H274.297L273.508 86.4453H277.695L277.469 87.6016H273.273L272.367 91.8281H276.844L276.594 93H270.812Z" fill="black"/>
</g>
</g>
<g id="bigFrontGroup">
<path id="bigFolderFront" d="M39 57.0001C37.5 62.0001 27.6255 97.0001 24.5 109.5C23.2497 114.5 25 123.5 34 124C43.0001 124.5 131 124.8 135 124C139 123.2 145.111 119 146.5 114C151.5 96.0001 161.4 62.0001 161 56.0002C160.6 50.0002 154 46.5219 150 46.5002C119.333 46.3335 58 46.1002 52 46.5002C46 46.9002 40.5 52.0001 39 57.0001Z" fill="#FED9A2" stroke="black" stroke-width="2"/>
<path id="PROJECT" d="M52.8398 95L55.8574 80.7227H59.0703C60.0794 80.7227 60.8965 80.8757 61.5215 81.1816C62.1465 81.4876 62.6022 81.9173 62.8887 82.4707C63.1751 83.0241 63.3184 83.6751 63.3184 84.4238C63.3184 85.2116 63.1849 85.9115 62.918 86.5234C62.6576 87.1354 62.2669 87.653 61.7461 88.0762C61.2253 88.4993 60.5775 88.8216 59.8027 89.043C59.0345 89.2578 58.1426 89.3652 57.127 89.3652H55.6719L54.4805 95H52.8398ZM55.9746 87.9688H57.3809C58.2663 87.9688 59.0247 87.8418 59.6562 87.5879C60.2943 87.334 60.7826 86.9499 61.1211 86.4355C61.4661 85.9147 61.6387 85.2604 61.6387 84.4727C61.6387 83.6523 61.4076 83.0599 60.9453 82.6953C60.4831 82.3242 59.7799 82.1387 58.8359 82.1387H57.2148L55.9746 87.9688ZM64.168 95L67.1855 80.7227H70.3105C71.7689 80.7227 72.8626 81.0254 73.5918 81.6309C74.321 82.2298 74.6855 83.1185 74.6855 84.2969C74.6855 85 74.5651 85.6413 74.3242 86.2207C74.0833 86.7936 73.696 87.2884 73.1621 87.7051C72.6348 88.1217 71.9414 88.4473 71.082 88.6816L73.4258 95H71.6289L69.5586 89.043H67.0684L65.8086 95H64.168ZM67.3613 87.6367H69.0898C69.7474 87.6367 70.3203 87.5618 70.8086 87.4121C71.2969 87.2559 71.7005 87.0378 72.0195 86.7578C72.3451 86.4779 72.5859 86.1393 72.7422 85.7422C72.9049 85.3451 72.9863 84.9023 72.9863 84.4141C72.9863 83.5872 72.7487 83.0046 72.2734 82.666C71.8047 82.3275 71.0951 82.1582 70.1445 82.1582H68.543L67.3613 87.6367ZM81.502 95.1953C80.3561 95.1953 79.3893 94.9674 78.6016 94.5117C77.8203 94.056 77.2311 93.4115 76.834 92.5781C76.4368 91.7448 76.2383 90.765 76.2383 89.6387C76.2383 88.8249 76.3099 88.0371 76.4531 87.2754C76.6029 86.5137 76.8177 85.7943 77.0977 85.1172C77.3776 84.4336 77.7227 83.8118 78.1328 83.252C78.5495 82.6855 79.0247 82.1973 79.5586 81.7871C80.0924 81.377 80.6816 81.0612 81.3262 80.8398C81.9772 80.612 82.6803 80.498 83.4355 80.498C85.0371 80.498 86.2871 80.9961 87.1855 81.9922C88.0905 82.9818 88.543 84.3587 88.543 86.123C88.543 86.9108 88.4779 87.6823 88.3477 88.4375C88.2174 89.1862 88.0221 89.8991 87.7617 90.5762C87.5013 91.2533 87.1758 91.875 86.7852 92.4414C86.3945 93.0013 85.9388 93.4863 85.418 93.8965C84.8971 94.3066 84.3112 94.6257 83.6602 94.8535C83.0091 95.0814 82.2897 95.1953 81.502 95.1953ZM81.5605 93.7402C82.1204 93.7402 82.638 93.6426 83.1133 93.4473C83.5885 93.252 84.0182 92.9785 84.4023 92.627C84.793 92.2754 85.1348 91.862 85.4277 91.3867C85.7272 90.9115 85.9779 90.3906 86.1797 89.8242C86.3815 89.2513 86.5345 88.6491 86.6387 88.0176C86.7428 87.3861 86.7949 86.7415 86.7949 86.084C86.7949 84.7819 86.4857 83.7695 85.8672 83.0469C85.2552 82.3242 84.4056 81.9629 83.3184 81.9629C82.7585 81.9629 82.2376 82.0573 81.7559 82.2461C81.2741 82.4284 80.8346 82.6921 80.4375 83.0371C80.0404 83.3757 79.6888 83.7793 79.3828 84.248C79.0833 84.7168 78.8294 85.2376 78.6211 85.8105C78.4128 86.377 78.2533 86.9792 78.1426 87.6172C78.0384 88.2552 77.9863 88.916 77.9863 89.5996C77.9863 90.459 78.1263 91.1979 78.4062 91.8164C78.6862 92.4349 79.0931 92.9102 79.627 93.2422C80.1608 93.5742 80.8053 93.7402 81.5605 93.7402ZM87.5664 98.7598C87.2539 98.7598 86.9609 98.737 86.6875 98.6914C86.4076 98.6458 86.1927 98.5905 86.043 98.5254L86.0918 97.0996C86.3001 97.1582 86.528 97.2038 86.7754 97.2363C87.0163 97.2754 87.2702 97.2949 87.5371 97.2949C87.9538 97.2949 88.3314 97.2103 88.6699 97.041C89.002 96.8717 89.2884 96.6081 89.5293 96.25C89.7702 95.8919 89.9492 95.4297 90.0664 94.8633L93.0742 80.7227H94.7246L91.6875 95.0488C91.4987 95.9277 91.2155 96.6406 90.8379 97.1875C90.4603 97.7344 89.9948 98.1315 89.4414 98.3789C88.8945 98.6328 88.2695 98.7598 87.5664 98.7598ZM95.3984 95L98.416 80.7227H105.652L105.34 82.1875H99.7539L98.7676 86.8066H104.002L103.719 88.252H98.4746L97.3418 93.5352H102.938L102.625 95H95.3984ZM111.414 95.1953C110.353 95.1953 109.445 94.974 108.689 94.5312C107.941 94.0885 107.365 93.4603 106.961 92.6465C106.557 91.8262 106.355 90.8529 106.355 89.7266C106.355 88.8411 106.46 87.959 106.668 87.0801C106.876 86.1947 107.186 85.3613 107.596 84.5801C108.012 83.7923 108.53 83.0957 109.148 82.4902C109.767 81.8783 110.486 81.3965 111.307 81.0449C112.133 80.6934 113.058 80.5176 114.08 80.5176C114.757 80.5176 115.376 80.5827 115.936 80.7129C116.502 80.8431 117.033 81.0417 117.527 81.3086L116.873 82.6855C116.495 82.4837 116.079 82.3177 115.623 82.1875C115.174 82.0508 114.66 81.9824 114.08 81.9824C113.279 81.9824 112.56 82.1289 111.922 82.4219C111.284 82.7083 110.724 83.1055 110.242 83.6133C109.767 84.1146 109.37 84.694 109.051 85.3516C108.738 86.0091 108.501 86.709 108.338 87.4512C108.182 88.1868 108.104 88.9323 108.104 89.6875C108.104 90.9375 108.419 91.9271 109.051 92.6562C109.689 93.3789 110.571 93.7402 111.697 93.7402C112.264 93.7402 112.811 93.6849 113.338 93.5742C113.872 93.4635 114.389 93.3236 114.891 93.1543V94.5996C114.383 94.7819 113.859 94.9251 113.318 95.0293C112.785 95.14 112.15 95.1953 111.414 95.1953ZM119.725 95L122.439 82.1875H118.455L118.768 80.7227H128.396L128.104 82.1875H124.119L121.395 95H119.725Z" fill="black"/>
</g>
</g>
</g>
</svg>
