<svg width="157" height="132" viewBox="0 0 157 132" fill="none" xmlns="http://www.w3.org/2000/svg">
<g id="Frame 7">
<path id="midFolderBack" d="M39.0204 26C34.6122 26 28 26 28 36.2618V96H118V57.5183C118 42.8586 110.653 39.438 106.98 39.5602H55.551V34.4293C55.551 31.8975 52.6122 26 48.5714 26H39.0204H39.0204Z" fill="#FBC379" stroke="black" stroke-width="2"/>
<g id="midFrontGroup">
<path id="midFolderFront" d="M39.0574 56.2238C37.9517 59.9096 30.6726 85.7103 28.3686 94.9248C27.4469 98.6106 28.7371 105.245 35.3717 105.614C42.0062 105.982 106.876 106.203 109.825 105.614C112.774 105.024 117.279 101.928 118.302 98.2421C121.988 84.9731 129.286 59.9096 128.991 55.4867C128.696 51.0637 123.831 48.4996 120.883 48.4836C98.2762 48.3608 53.0636 48.1887 48.6406 48.4836C44.2176 48.7785 40.1632 52.538 39.0574 56.2238Z" fill="#FED9A2" stroke="black" stroke-width="2"/>
<path id="MODULE" d="M46.6562 85L49.0703 73.5781H50.9375L52.125 83.0547H52.1875L57.4062 73.5781H59.4297L57.0547 85H55.7266L57.2266 77.9062C57.3203 77.4792 57.4115 77.0781 57.5 76.7031C57.5885 76.3281 57.6693 75.987 57.7422 75.6797C57.8203 75.3672 57.8906 75.1016 57.9531 74.8828H57.9219L52.2969 85H51.2578L49.9609 74.8906H49.8984C49.8776 75.1042 49.8411 75.3776 49.7891 75.7109C49.7422 76.0391 49.6849 76.3906 49.6172 76.7656C49.5547 77.1354 49.487 77.4922 49.4141 77.8359L47.9062 85H46.6562ZM64.7734 85.1562C63.8568 85.1562 63.0833 84.974 62.4531 84.6094C61.8281 84.2448 61.3568 83.7292 61.0391 83.0625C60.7214 82.3958 60.5625 81.612 60.5625 80.7109C60.5625 80.0599 60.6198 79.4297 60.7344 78.8203C60.8542 78.2109 61.026 77.6354 61.25 77.0938C61.474 76.5469 61.75 76.0495 62.0781 75.6016C62.4115 75.1484 62.7917 74.7578 63.2188 74.4297C63.6458 74.1016 64.1172 73.849 64.6328 73.6719C65.1536 73.4896 65.7161 73.3984 66.3203 73.3984C67.6016 73.3984 68.6016 73.7969 69.3203 74.5938C70.0443 75.3854 70.4062 76.487 70.4062 77.8984C70.4062 78.5286 70.3542 79.1458 70.25 79.75C70.1458 80.349 69.9896 80.9193 69.7812 81.4609C69.5729 82.0026 69.3125 82.5 69 82.9531C68.6875 83.401 68.3229 83.7891 67.9062 84.1172C67.4896 84.4453 67.0208 84.7005 66.5 84.8828C65.9792 85.0651 65.4036 85.1562 64.7734 85.1562ZM64.8203 83.9922C65.2682 83.9922 65.6823 83.9141 66.0625 83.7578C66.4427 83.6016 66.7865 83.3828 67.0938 83.1016C67.4062 82.8203 67.6797 82.4896 67.9141 82.1094C68.1536 81.7292 68.3542 81.3125 68.5156 80.8594C68.6771 80.401 68.7995 79.9193 68.8828 79.4141C68.9661 78.9089 69.0078 78.3932 69.0078 77.8672C69.0078 76.8255 68.7604 76.0156 68.2656 75.4375C67.776 74.8594 67.0964 74.5703 66.2266 74.5703C65.7786 74.5703 65.362 74.6458 64.9766 74.7969C64.5911 74.9427 64.2396 75.1536 63.9219 75.4297C63.6042 75.7005 63.3229 76.0234 63.0781 76.3984C62.8385 76.7734 62.6354 77.1901 62.4688 77.6484C62.3021 78.1016 62.1745 78.5833 62.0859 79.0938C62.0026 79.6042 61.9609 80.1328 61.9609 80.6797C61.9609 81.3672 62.0729 81.9583 62.2969 82.4531C62.5208 82.9479 62.8464 83.3281 63.2734 83.5938C63.7005 83.8594 64.2161 83.9922 64.8203 83.9922ZM71.5938 85L74.0078 73.5781H76.6719C78.0573 73.5781 79.1406 73.9531 79.9219 74.7031C80.7083 75.4479 81.1016 76.5938 81.1016 78.1406C81.1016 78.9219 81.0078 79.6589 80.8203 80.3516C80.6328 81.0443 80.3542 81.6745 79.9844 82.2422C79.6146 82.8099 79.1589 83.2995 78.6172 83.7109C78.0755 84.1224 77.4479 84.4401 76.7344 84.6641C76.0208 84.888 75.2266 85 74.3516 85H71.5938ZM73.1484 83.8594H74.4297C75.1172 83.8594 75.7396 83.7656 76.2969 83.5781C76.8542 83.3854 77.3438 83.1146 77.7656 82.7656C78.1927 82.4167 78.5495 82.0052 78.8359 81.5312C79.1276 81.0521 79.3464 80.526 79.4922 79.9531C79.638 79.375 79.7109 78.7656 79.7109 78.125C79.7109 76.9271 79.4193 76.0599 78.8359 75.5234C78.2578 74.9818 77.4792 74.7109 76.5 74.7109H75.0938L73.1484 83.8594ZM86.4062 85.1562C85.625 85.1562 84.974 85.0339 84.4531 84.7891C83.9323 84.5443 83.5417 84.1875 83.2812 83.7188C83.0208 83.25 82.8906 82.6771 82.8906 82C82.8906 81.8177 82.9062 81.599 82.9375 81.3438C82.9688 81.0885 83.013 80.8151 83.0703 80.5234L84.5547 73.5781H85.875L84.3828 80.5938C84.3255 80.8333 84.2812 81.0833 84.25 81.3438C84.2188 81.6042 84.2031 81.8177 84.2031 81.9844C84.2031 82.6146 84.3958 83.1068 84.7812 83.4609C85.1667 83.8151 85.7344 83.9922 86.4844 83.9922C87.125 83.9922 87.6589 83.8802 88.0859 83.6562C88.513 83.4271 88.8568 83.0911 89.1172 82.6484C89.3828 82.2005 89.5859 81.6458 89.7266 80.9844L91.3125 73.5781H92.625L91.0312 81.0938C90.8542 81.9427 90.5781 82.6719 90.2031 83.2812C89.8281 83.8854 89.3307 84.349 88.7109 84.6719C88.0911 84.9948 87.3229 85.1562 86.4062 85.1562ZM93.1406 85L95.5547 73.5781H96.8672L94.6953 83.8125H99.1719L98.9219 85H93.1406ZM100.812 85L103.227 73.5781H109.016L108.766 74.75H104.297L103.508 78.4453H107.695L107.469 79.6016H103.273L102.367 83.8281H106.844L106.594 85H100.812Z" fill="black"/>
</g>
</g>
</svg>
