<svg width="118" height="99" viewBox="0 0 118 99" fill="none" xmlns="http://www.w3.org/2000/svg">
<g id="Frame 8">
<path id="smallFolderBack" d="M30.8367 20C27.702 20 23 20 23 27.3298V70H87V42.5131C87 32.0418 81.7755 29.5986 79.1633 29.6858H42.5918V26.0209C42.5918 24.2125 40.502 20 37.6286 20H30.8367H30.8367Z" fill="#FBC379" stroke="black" stroke-width="2"/>
<g id="smallFrontGroup">
<path id="smallFolderFront" d="M30.8825 41.5457C30.0943 44.1732 24.9052 62.5658 23.2627 69.1346C22.6057 71.762 23.5255 76.4916 28.255 76.7543C32.9846 77.0171 79.2288 77.1747 81.3308 76.7543C83.4328 76.3339 86.6442 74.1268 87.374 71.4993C90.0015 62.0403 95.204 44.1732 94.9938 41.0202C94.7836 37.8672 91.3153 36.0394 89.2133 36.0279C73.0979 35.9403 40.8671 35.8177 37.7141 36.0279C34.5611 36.2381 31.6708 38.9182 30.8825 41.5457Z" fill="#FED9A2" stroke="black" stroke-width="2"/>
<path id="SCENARIO" d="M36.2383 62.1172C35.8125 62.1172 35.4395 62.0859 35.1191 62.0234C34.7988 61.9609 34.502 61.8652 34.2285 61.7363V60.7578C34.4746 60.8828 34.7637 60.998 35.0957 61.1035C35.4277 61.2051 35.8125 61.2559 36.25 61.2559C36.5195 61.2559 36.7773 61.2246 37.0234 61.1621C37.2695 61.0996 37.4883 61.002 37.6797 60.8691C37.875 60.7363 38.0273 60.5664 38.1367 60.3594C38.25 60.1523 38.3066 59.9062 38.3066 59.6211C38.3066 59.3906 38.2559 59.1875 38.1543 59.0117C38.0566 58.832 37.9004 58.6602 37.6855 58.4961C37.4707 58.3281 37.1895 58.1484 36.8418 57.957C36.5449 57.7812 36.2773 57.5977 36.0391 57.4062C35.8047 57.2109 35.6191 56.9844 35.4824 56.7266C35.3457 56.4648 35.2773 56.1484 35.2773 55.7773C35.2773 55.3789 35.3516 55.0273 35.5 54.7227C35.6484 54.4141 35.8516 54.1562 36.1094 53.9492C36.3711 53.7383 36.6699 53.5801 37.0059 53.4746C37.3457 53.3652 37.7051 53.3105 38.084 53.3105C38.5332 53.3105 38.9238 53.3555 39.2559 53.4453C39.5879 53.5352 39.9082 53.6562 40.2168 53.8086L39.8359 54.6523C39.6172 54.5352 39.3535 54.4297 39.0449 54.3359C38.7402 54.2383 38.4199 54.1895 38.084 54.1895C37.8379 54.1895 37.6074 54.2227 37.3926 54.2891C37.1816 54.3516 36.9961 54.4473 36.8359 54.5762C36.6758 54.7051 36.5508 54.8652 36.4609 55.0566C36.3711 55.2441 36.3262 55.4629 36.3262 55.7129C36.3262 55.9668 36.373 56.1777 36.4668 56.3457C36.5645 56.5137 36.7051 56.666 36.8887 56.8027C37.0762 56.9395 37.3066 57.0879 37.5801 57.248C37.9277 57.4512 38.2344 57.6543 38.5 57.8574C38.7656 58.0566 38.9727 58.2891 39.1211 58.5547C39.2695 58.8164 39.3438 59.1465 39.3438 59.5449C39.3438 59.9746 39.2676 60.3516 39.1152 60.6758C38.9668 60.9961 38.7539 61.2637 38.4766 61.4785C38.1992 61.6895 37.8711 61.8496 37.4922 61.959C37.1133 62.0645 36.6953 62.1172 36.2383 62.1172ZM43.9609 62.1172C43.3242 62.1172 42.7793 61.9844 42.3262 61.7188C41.877 61.4531 41.5312 61.0762 41.2891 60.5879C41.0469 60.0957 40.9258 59.5117 40.9258 58.8359C40.9258 58.3047 40.9883 57.7754 41.1133 57.248C41.2383 56.7168 41.4238 56.2168 41.6699 55.748C41.9199 55.2754 42.2305 54.8574 42.6016 54.4941C42.9727 54.127 43.4043 53.8379 43.8965 53.627C44.3926 53.416 44.9473 53.3105 45.5605 53.3105C45.9668 53.3105 46.3379 53.3496 46.6738 53.4277C47.0137 53.5059 47.332 53.625 47.6289 53.7852L47.2363 54.6113C47.0098 54.4902 46.7598 54.3906 46.4863 54.3125C46.2168 54.2305 45.9082 54.1895 45.5605 54.1895C45.0801 54.1895 44.6484 54.2773 44.2656 54.4531C43.8828 54.625 43.5469 54.8633 43.2578 55.168C42.9727 55.4688 42.7344 55.8164 42.543 56.2109C42.3555 56.6055 42.2129 57.0254 42.1152 57.4707C42.0215 57.9121 41.9746 58.3594 41.9746 58.8125C41.9746 59.5625 42.1641 60.1562 42.543 60.5938C42.9258 61.0273 43.4551 61.2441 44.1309 61.2441C44.4707 61.2441 44.7988 61.2109 45.1152 61.1445C45.4355 61.0781 45.7461 60.9941 46.0469 60.8926V61.7598C45.7422 61.8691 45.4277 61.9551 45.1035 62.0176C44.7832 62.084 44.4023 62.1172 43.9609 62.1172ZM47.6055 62L49.416 53.4336H53.7578L53.5703 54.3125H50.2188L49.627 57.084H52.7676L52.5977 57.9512H49.4512L48.7715 61.1211H52.1289L51.9414 62H47.6055ZM53.793 62L55.6035 53.4336H56.6465L59.3594 60.6055H59.3887C59.416 60.4102 59.4512 60.1836 59.4941 59.9258C59.5371 59.6641 59.5859 59.3926 59.6406 59.1113C59.6953 58.8262 59.75 58.5547 59.8047 58.2969L60.8477 53.4336H61.7852L59.9746 62H58.9316L56.2012 54.8105H56.1719C56.1523 54.9434 56.127 55.1016 56.0957 55.2852C56.0684 55.4688 56.0352 55.668 55.9961 55.8828C55.9609 56.0977 55.9219 56.3184 55.8789 56.5449C55.8359 56.7676 55.791 56.9844 55.7441 57.1953L54.7305 62H53.793ZM61.0762 62L65.7695 53.4336H66.8066L67.8906 62H66.9121L66.5723 59.2695H63.6133L62.1602 62H61.0762ZM64.0879 58.3848H66.4727L66.2441 56.3867C66.2168 56.0977 66.1875 55.7812 66.1562 55.4375C66.125 55.0898 66.1055 54.7793 66.0977 54.5059H66.0625C65.9375 54.8027 65.7949 55.1152 65.6348 55.4434C65.4785 55.7676 65.3125 56.0957 65.1367 56.4277L64.0879 58.3848ZM68.9805 62L70.791 53.4336H72.666C73.541 53.4336 74.1973 53.6152 74.6348 53.9785C75.0723 54.3379 75.291 54.8711 75.291 55.5781C75.291 56 75.2188 56.3848 75.0742 56.7324C74.9297 57.0762 74.6973 57.373 74.377 57.623C74.0605 57.873 73.6445 58.0684 73.1289 58.209L74.5352 62H73.457L72.2148 58.4258H70.7207L69.9648 62H68.9805ZM70.8965 57.582H71.9336C72.3281 57.582 72.6719 57.5371 72.9648 57.4473C73.2578 57.3535 73.5 57.2227 73.6914 57.0547C73.8867 56.8867 74.0312 56.6836 74.125 56.4453C74.2227 56.207 74.2715 55.9414 74.2715 55.6484C74.2715 55.1523 74.1289 54.8027 73.8438 54.5996C73.5625 54.3965 73.1367 54.2949 72.5664 54.2949H71.6055L70.8965 57.582ZM75.8477 62L77.6699 53.4336H78.6426L76.8203 62H75.8477ZM82.6387 62.1172C81.9512 62.1172 81.3711 61.9805 80.8984 61.707C80.4297 61.4336 80.0762 61.0469 79.8379 60.5469C79.5996 60.0469 79.4805 59.459 79.4805 58.7832C79.4805 58.2949 79.5234 57.8223 79.6094 57.3652C79.6992 56.9082 79.8281 56.4766 79.9961 56.0703C80.1641 55.6602 80.3711 55.2871 80.6172 54.9512C80.8672 54.6113 81.1523 54.3184 81.4727 54.0723C81.793 53.8262 82.1465 53.6367 82.5332 53.5039C82.9238 53.3672 83.3457 53.2988 83.7988 53.2988C84.7598 53.2988 85.5098 53.5977 86.0488 54.1953C86.5918 54.7891 86.8633 55.6152 86.8633 56.6738C86.8633 57.1465 86.8242 57.6094 86.7461 58.0625C86.668 58.5117 86.5508 58.9395 86.3945 59.3457C86.2383 59.752 86.043 60.125 85.8086 60.4648C85.5742 60.8008 85.3008 61.0918 84.9883 61.3379C84.6758 61.584 84.3242 61.7754 83.9336 61.9121C83.543 62.0488 83.1113 62.1172 82.6387 62.1172ZM82.6738 61.2441C83.0098 61.2441 83.3203 61.1855 83.6055 61.0684C83.8906 60.9512 84.1484 60.7871 84.3789 60.5762C84.6133 60.3652 84.8184 60.1172 84.9941 59.832C85.1738 59.5469 85.3242 59.2344 85.4453 58.8945C85.5664 58.5508 85.6582 58.1895 85.7207 57.8105C85.7832 57.4316 85.8145 57.0449 85.8145 56.6504C85.8145 55.8691 85.6289 55.2617 85.2578 54.8281C84.8906 54.3945 84.3809 54.1777 83.7285 54.1777C83.3926 54.1777 83.0801 54.2344 82.791 54.3477C82.502 54.457 82.2383 54.6152 82 54.8223C81.7617 55.0254 81.5508 55.2676 81.3672 55.5488C81.1875 55.8301 81.0352 56.1426 80.9102 56.4863C80.7852 56.8262 80.6895 57.1875 80.623 57.5703C80.5605 57.9531 80.5293 58.3496 80.5293 58.7598C80.5293 59.2754 80.6133 59.7188 80.7812 60.0898C80.9492 60.4609 81.1934 60.7461 81.5137 60.9453C81.834 61.1445 82.2207 61.2441 82.6738 61.2441Z" fill="black"/>
</g>
</g>
</svg>
