<svg width="212" height="216" viewBox="0 0 212 216" fill="none" xmlns="http://www.w3.org/2000/svg">
<path d="M62.4817 24.2666H24.7918V95.6262H64.4918C75.045 94.2861 95.9503 85.073 95.1463 58.9413C94.3422 32.8096 73.0349 24.9366 62.4817 24.2666Z" fill="white"/>
<path d="M80.0431 59.4009C80.0431 70.8958 70.5242 80.2143 58.7822 80.2143C54.9816 80.2143 45.1089 80.2143 41.5354 80.2143C40.4598 80.2143 39.5887 79.3559 39.5887 78.2915C39.5888 74.1715 39.589 64.4565 39.589 59.4009C39.589 55.148 39.5888 44.8133 39.5887 40.5137C39.5887 39.4494 40.4559 38.5874 41.5314 38.5874C44.9081 38.5874 54.2194 38.5874 58.7822 38.5874C70.5242 38.5874 80.0431 47.9059 80.0431 59.4009Z" fill="#B2AFFF"/>
<path fill-rule="evenodd" clip-rule="evenodd" d="M59.3167 98C80.5854 98 97.8274 80.7631 97.8274 59.5C97.8274 38.2369 80.5854 21 59.3167 21H25.561C23.5885 21 22 22.5857 22 24.5588C22.0002 32.0317 22.0005 51.5701 22.0005 59.5C22.0005 68.9336 22.0002 87.2726 22 94.4408C22 96.4134 23.5863 98 25.5594 98H59.3167ZM93.6687 59.5C93.6687 78.4664 78.2889 93.8421 59.3167 93.8421H26.1588C26.1589 86.298 26.1593 68.6813 26.1593 59.5C26.1593 51.7737 26.1589 33.0274 26.1588 25.1579H59.3167C78.2889 25.1579 93.6687 40.5335 93.6687 59.5Z" fill="#444049"/>
<circle cx="151.388" cy="58.9456" r="37.3714" fill="white"/>
<path d="M174.56 59.4998C174.56 72.2353 164.192 82.5596 151.403 82.5596C138.614 82.5596 128.246 72.2353 128.246 59.4998C128.246 46.7642 138.614 36.4399 151.403 36.4399C164.192 36.4399 174.56 46.7642 174.56 59.4998Z" fill="#B2AFFF"/>
<path fill-rule="evenodd" clip-rule="evenodd" d="M151.5 95.8804C171.592 95.8804 187.88 79.5923 187.88 59.5C187.88 39.4077 171.592 23.1196 151.5 23.1196C131.408 23.1196 115.12 39.4077 115.12 59.5C115.12 79.5923 131.408 95.8804 151.5 95.8804ZM192 59.5C192 81.8675 173.868 100 151.5 100C129.132 100 111 81.8675 111 59.5C111 37.1325 129.132 19 151.5 19C173.868 19 192 37.1325 192 59.5Z" fill="#444049"/>
<ellipse cx="59.0332" cy="154.429" rx="38.4205" ry="39.4108" fill="white"/>
<path d="M82.1761 154.444C82.1761 166.968 72.0237 177.12 59.5 177.12C46.9764 177.12 36.824 166.968 36.824 154.444C36.824 141.92 46.9764 131.768 59.5 131.768C72.0237 131.768 82.1761 141.92 82.1761 154.444Z" fill="#B2AFFF"/>
<path fill-rule="evenodd" clip-rule="evenodd" d="M59.41 118.211C39.4156 118.211 23.2046 134.457 23.2046 154.5C23.2046 174.543 39.4156 190.789 59.41 190.789C78.6994 190.789 94.468 175.668 95.5556 156.606H59.41C58.2477 156.606 57.3077 155.662 57.3077 154.5C57.3077 153.338 58.2477 152.394 59.41 152.394H96.5112C98.3268 152.394 99.8589 153.884 99.8004 155.777C99.1267 177.553 81.3028 195 59.41 195C37.0909 195 19 176.866 19 154.5C19 132.134 37.0909 114 59.41 114C70.7641 114 81.0274 118.696 88.3656 126.25C89.1749 127.083 89.1572 128.415 88.326 129.226C87.4939 130.038 86.1622 130.02 85.3522 129.187C78.7725 122.414 69.5827 118.211 59.41 118.211Z" fill="#444049"/>
<circle cx="153.5" cy="154.5" r="37.5" fill="white"/>
<path d="M187.408 189.429C178.68 185.342 174.309 177.443 173.436 169.088C173.384 168.589 172.787 165.522 174.013 162.332C175.564 158.299 179.608 156.55 184.549 160.452C189.179 164.108 188.644 172.226 195.976 175.659C198.424 176.804 201.51 177.02 201.51 177.02C209.423 176.811 210.235 180.647 210.235 183.392C210.235 186.901 207.809 189.358 204.587 190.747C200.726 192.412 193.502 192.282 187.408 189.429Z" fill="#B2AFFF"/>
<path d="M154.549 166.038C154.549 167.717 153.32 169.077 151.804 169.077C150.288 169.077 149.059 167.717 149.059 166.038C149.059 164.36 150.288 162.999 151.804 162.999C153.32 162.999 154.549 164.36 154.549 166.038Z" fill="#444049"/>
<path d="M164.745 166.821C164.745 168.5 163.516 169.861 162 169.861C160.484 169.861 159.255 168.5 159.255 166.821C159.255 165.143 160.484 163.782 162 163.782C163.516 163.782 164.745 165.143 164.745 166.821Z" fill="#444049"/>
<path fill-rule="evenodd" clip-rule="evenodd" d="M191.484 168.684C193.211 164.146 194.157 159.223 194.157 154.078C194.157 131.391 175.765 113 153.078 113C130.391 113 112 131.391 112 154.078C112 176.765 130.391 195.157 153.078 195.157C159.886 195.157 166.638 194.066 171.961 190.569C174.34 189.006 175.866 187.478 176.835 186.285C176.929 186.169 177.018 186.056 177.102 185.946C177.539 185.377 177.842 184.901 178.048 184.556C180.29 187.157 183.144 189.38 186.66 191.027C189.93 192.558 193.482 193.351 196.73 193.544C199.951 193.735 203.021 193.344 205.286 192.368C208.857 190.828 212 187.881 212 183.392C212 181.898 211.794 179.675 210.129 177.894C208.459 176.107 205.705 175.16 201.56 175.254L201.533 175.251C201.457 175.244 201.341 175.233 201.193 175.216C200.896 175.181 200.473 175.124 199.978 175.033C198.97 174.849 197.753 174.542 196.724 174.06C194.12 172.841 192.664 170.936 191.484 168.684ZM149.745 191.088C150.843 191.185 151.955 191.235 153.078 191.235C159.565 191.235 165.416 190.177 169.807 187.292C173.248 185.031 174.436 182.972 174.792 182.356L174.808 182.328C175.07 181.874 175.296 181.495 175.491 181.188C175.509 181.16 175.527 181.131 175.547 181.101C173.369 177.492 172.114 173.419 171.681 169.271C171.681 169.271 171.68 169.267 171.679 169.255C171.677 169.244 171.675 169.228 171.672 169.204C171.666 169.163 171.664 169.146 171.661 169.128L171.661 169.125C171.658 169.105 171.655 169.081 171.647 169.025C171.627 168.878 171.602 168.687 171.577 168.46C171.528 168.006 171.482 167.412 171.481 166.722C171.478 165.349 171.653 163.555 172.366 161.698C173.035 159.959 174.148 158.449 175.669 157.51C175.486 157.292 175.291 157.066 175.084 156.833C174.243 155.887 172.75 154.761 170.875 153.829C169.005 152.899 166.787 152.178 164.508 152.011C161.566 151.796 159.128 152.101 157.023 152.904C154.92 153.705 153.121 155.013 151.472 156.842C149.731 158.774 148.292 161.035 147.389 163.632C147.307 163.867 147.229 164.094 147.153 164.314L147.139 164.354C146.374 166.566 145.822 168.162 144.779 169.773C143.638 171.535 141.954 173.259 138.956 176.075C137.323 177.61 136.191 180.11 136.152 182.55C136.134 183.693 136.537 185.074 137.276 186.349C137.583 186.879 137.944 187.384 138.35 187.839C138.734 188.272 139.236 188.576 139.776 188.783C142.022 189.645 144.373 190.294 146.804 190.708V188.408C146.619 188.344 146.438 188.269 146.263 188.181C145.859 187.979 145.371 187.566 144.914 187.121C144.447 186.667 143.978 186.147 143.61 185.697L143.542 185.615C142.57 184.428 141.608 183.254 141.608 181.623C141.608 179.801 142.615 178.459 143.893 177.65C145.127 176.869 146.666 176.529 148.128 176.529C149.744 176.529 151.374 177.108 152.622 178.041C153.857 178.963 154.941 180.42 154.941 182.249C154.941 183.988 153.948 185.614 152.79 186.731C151.974 187.519 150.918 188.209 149.745 188.56V191.088ZM132.698 185.152C122.593 178.511 115.922 167.074 115.922 154.078C115.922 133.557 132.557 116.922 153.078 116.922C173.6 116.922 190.235 133.557 190.235 154.078C190.235 157.327 189.819 160.478 189.036 163.481C188.962 163.335 188.887 163.192 188.811 163.051C188.038 161.615 187.065 160.19 185.643 159.067C183.626 157.474 181.577 156.605 179.63 156.508C179.145 155.851 178.567 155.138 177.871 154.355C175.534 151.726 170.345 148.699 164.78 148.292C161.656 148.063 158.908 148.348 156.454 149.151C154.856 145.931 151.672 144.261 149.114 143.228C147.233 142.469 145.255 142.097 143.482 142.042C141.759 141.99 140.018 142.231 138.722 142.903C137.759 143.402 137.384 144.586 137.882 145.549C138.381 146.511 139.565 146.887 140.528 146.388C140.991 146.148 141.975 145.923 143.362 145.966C144.7 146.007 146.219 146.292 147.644 146.868C150.013 147.824 151.952 149.009 152.89 150.802C151.382 151.731 149.995 152.912 148.702 154.346C146.677 156.593 144.955 159.277 143.866 162.408C143.796 162.611 143.728 162.807 143.663 162.995L143.659 163.005C142.837 165.376 142.432 166.537 141.649 167.746C140.79 169.072 139.436 170.507 136.403 173.357C134.023 175.593 132.478 179.058 132.424 182.491C132.41 183.382 132.497 184.278 132.698 185.152ZM201.386 178.78L201.38 178.78L201.369 178.779L201.355 178.778L201.334 178.776C201.321 178.775 201.307 178.774 201.291 178.773C201.269 178.771 201.242 178.769 201.212 178.766C201.11 178.757 200.965 178.742 200.785 178.721C200.427 178.68 199.926 178.612 199.343 178.505C198.197 178.295 196.647 177.921 195.228 177.257C190.985 175.27 189.061 171.906 187.65 168.886C187.4 168.35 187.174 167.844 186.958 167.359L186.956 167.357L186.955 167.353C186.537 166.418 186.155 165.563 185.703 164.724C185.045 163.502 184.348 162.542 183.455 161.836C181.253 160.097 179.558 159.849 178.436 160.128C177.314 160.408 176.288 161.333 175.661 162.965C174.725 165.4 175.037 167.74 175.159 168.65C175.173 168.754 175.184 168.839 175.191 168.904C176.012 176.762 180.089 184.053 188.156 187.83C190.979 189.152 194.087 189.851 196.939 190.021C199.819 190.192 202.292 189.815 203.889 189.127C206.761 187.888 208.471 185.921 208.471 183.392C208.471 182.142 208.271 181.074 207.55 180.303C206.849 179.552 205.27 178.686 201.556 178.784L201.472 178.786H201.437L201.386 178.78Z" fill="#444049"/>
</svg>
